<svg width="15" height="19" viewBox="0 0 15 19" fill="none" xmlns="http://www.w3.org/2000/svg">
<path d="M14.0129 4.24893C14.0129 3.92883 14.0129 3.60838 14.0129 3.28828C14.0235 2.98985 13.9841 2.7083 13.8001 2.45648C13.4708 2.00571 13.0236 1.81557 12.4822 1.81557C11.5257 1.81557 10.5696 1.8163 9.61319 1.81483C9.40912 1.81447 9.39671 1.79868 9.39233 1.59789C9.38868 1.43968 9.40219 1.28073 9.37043 1.12326C9.24813 0.517213 8.83087 0.125541 8.1723 0C7.38377 0 6.59524 0 5.80672 0C5.68186 0.0444164 5.54679 0.042214 5.42486 0.107187C4.87472 0.401216 4.63524 0.876582 4.621 1.48556C4.61334 1.81226 4.61589 1.81263 4.28734 1.81263C3.37797 1.81263 2.46861 1.81373 1.55888 1.8119C1.38146 1.81153 1.20806 1.83245 1.03721 1.87687C0.479035 2.02186 0.074184 2.4954 0.0183299 3.07464C-0.0192713 3.46485 0.0157745 3.85652 0.00117207 4.24672C-0.0189062 4.78192 0.219843 5.18497 0.650978 5.45918C0.857237 5.59023 0.912361 5.73486 0.912361 5.96465C0.90652 9.73637 0.908345 13.5081 0.908345 17.2798C0.908345 17.4263 0.901044 17.5742 0.942661 17.717C1.11424 18.3054 1.46616 18.6978 2.09442 18.787C5.35769 18.787 8.62096 18.787 11.8842 18.787C12.5278 18.7298 12.8954 18.3436 13.0769 17.7508C13.1411 17.5408 13.1455 17.318 13.1451 17.097C13.1437 13.3954 13.144 9.69342 13.1444 5.99181C13.1444 5.92464 13.1484 5.85709 13.144 5.79029C13.1357 5.65961 13.19 5.57665 13.3043 5.51094C13.7869 5.23306 14.0468 4.82377 14.0129 4.24893ZM6.3868 0.943757C6.88912 0.965782 7.39326 0.946694 7.89668 0.948896C8.22231 0.950365 8.39572 1.12693 8.40448 1.4573C8.41507 1.8732 8.41507 1.8732 7.99634 1.8732C7.66888 1.8732 7.34143 1.8732 7.01397 1.8732C6.59561 1.8732 6.17689 1.86843 5.75889 1.87613C5.64317 1.87834 5.62565 1.84236 5.6198 1.73334C5.58658 1.11041 5.741 0.915492 6.3868 0.943757ZM12.139 17.2589C12.139 17.662 11.9653 17.8389 11.5677 17.8389C8.52896 17.8392 5.49021 17.8392 2.45145 17.8389C2.06668 17.8389 1.89912 17.6719 1.89912 17.2835C1.89802 15.3754 1.89875 13.4674 1.89875 11.5596C1.89875 9.65158 1.90131 7.74351 1.89401 5.8358C1.89328 5.66658 1.94292 5.64125 2.09479 5.64162C5.38215 5.64602 8.66951 5.64639 11.9569 5.64125C12.1091 5.64088 12.1427 5.67833 12.1427 5.82993C12.1379 9.6391 12.139 13.449 12.139 17.2589ZM13.0623 4.14027C13.0597 4.51579 12.8783 4.69639 12.5023 4.69676C10.1732 4.69713 7.84411 4.69713 5.51503 4.69713C4.19279 4.69713 2.87054 4.68979 1.54829 4.70263C1.23252 4.70557 0.928789 4.51689 0.960549 4.10907C0.979532 3.86606 0.963469 3.62012 0.964199 3.37565C0.964929 3.0093 1.146 2.8243 1.50631 2.8243C3.34402 2.82393 5.18173 2.82393 7.01944 2.82393C8.84511 2.82393 10.6708 2.82393 12.4964 2.82393C12.8892 2.82393 13.0601 2.99425 13.0619 3.38813C13.0637 3.63884 13.0641 3.88956 13.0623 4.14027Z" fill="#BDBDBD"/>
<path d="M10.2811 11.7414C10.2811 10.5553 10.2811 9.36893 10.2811 8.1829C10.2811 7.80995 10.2825 7.437 10.2804 7.06405C10.2789 6.84637 10.1686 6.69624 9.97626 6.6074C9.80103 6.52665 9.64113 6.57694 9.5046 6.6944C9.37208 6.8082 9.33631 6.96384 9.33667 7.13893C9.33923 10.2084 9.3385 13.2779 9.33886 16.3474C9.33886 16.3904 9.33521 16.4337 9.34142 16.4756C9.37062 16.6723 9.47686 16.8081 9.66085 16.8837C9.83389 16.9546 9.98502 16.9017 10.1153 16.7901C10.242 16.6819 10.2836 16.5336 10.2833 16.3643C10.2796 14.823 10.2811 13.282 10.2811 11.7414Z" fill="#BDBDBD"/>
<path d="M4.6854 11.7616C4.6854 10.2455 4.6854 8.72951 4.6854 7.21348C4.6854 7.14631 4.68576 7.07876 4.68101 7.01196C4.65363 6.64525 4.26083 6.4551 3.95966 6.6603C3.76909 6.79024 3.745 6.98332 3.74537 7.19256C3.74646 10.2246 3.7461 13.2567 3.74683 16.2891C3.74683 16.368 3.75048 16.4484 3.76508 16.5259C3.82787 16.8621 4.1984 17.0145 4.4795 16.8239C4.65692 16.7035 4.68795 16.5281 4.68759 16.3288C4.6843 14.8061 4.6854 13.2838 4.6854 11.7616Z" fill="#BDBDBD"/>
<path d="M6.92001 6.58058C6.68637 6.63821 6.54107 6.83827 6.54107 7.11541C6.54034 10.197 6.54034 13.2786 6.54107 16.3599C6.54107 16.6855 6.74441 16.9164 7.02003 16.9127C7.29419 16.909 7.48074 16.6892 7.48074 16.368C7.4811 14.8273 7.48074 13.2864 7.48074 11.7457C7.48074 10.1989 7.48074 8.652 7.4811 7.10513C7.4811 7.0196 7.48293 6.93554 7.44241 6.85515C7.34128 6.65326 7.11458 6.53249 6.92001 6.58058Z" fill="#BDBDBD"/>
</svg>
