<svg width="430" height="39" viewBox="0 0 430 39" fill="none" xmlns="http://www.w3.org/2000/svg">
<path d="M7.88184 8.08496H2.33594V12.6201H8.77832V14H0.648438V1.20312H8.69043V2.5918H2.33594V6.70508H7.88184V8.08496ZM14.6494 8.2959C13.2021 7.87988 12.1475 7.37012 11.4854 6.7666C10.8291 6.15723 10.501 5.40723 10.501 4.5166C10.501 3.50879 10.9023 2.67676 11.7051 2.02051C12.5137 1.3584 13.5625 1.02734 14.8516 1.02734C15.7305 1.02734 16.5127 1.19727 17.1982 1.53711C17.8896 1.87695 18.4229 2.3457 18.7979 2.94336C19.1787 3.54102 19.3691 4.19434 19.3691 4.90332H17.6729C17.6729 4.12988 17.4268 3.52344 16.9346 3.08398C16.4424 2.63867 15.748 2.41602 14.8516 2.41602C14.0195 2.41602 13.3691 2.60059 12.9004 2.96973C12.4375 3.33301 12.2061 3.83984 12.2061 4.49023C12.2061 5.01172 12.4258 5.4541 12.8652 5.81738C13.3105 6.1748 14.0635 6.50293 15.124 6.80176C16.1904 7.10059 17.0225 7.43164 17.6201 7.79492C18.2236 8.15234 18.6689 8.57129 18.9561 9.05176C19.249 9.53223 19.3955 10.0977 19.3955 10.748C19.3955 11.7852 18.9912 12.6172 18.1826 13.2441C17.374 13.8652 16.293 14.1758 14.9395 14.1758C14.0605 14.1758 13.2402 14.0088 12.4785 13.6748C11.7168 13.335 11.1279 12.8721 10.7119 12.2861C10.3018 11.7002 10.0967 11.0352 10.0967 10.291H11.793C11.793 11.0645 12.0771 11.6768 12.6455 12.1279C13.2197 12.5732 13.9844 12.7959 14.9395 12.7959C15.8301 12.7959 16.5127 12.6143 16.9873 12.251C17.4619 11.8877 17.6992 11.3926 17.6992 10.7656C17.6992 10.1387 17.4795 9.65527 17.04 9.31543C16.6006 8.96973 15.8037 8.62988 14.6494 8.2959ZM30.9795 9.93945C30.8213 11.293 30.3203 12.3389 29.4766 13.0771C28.6387 13.8096 27.5225 14.1758 26.1279 14.1758C24.6162 14.1758 23.4033 13.6338 22.4893 12.5498C21.5811 11.4658 21.127 10.0156 21.127 8.19922V6.96875C21.127 5.7793 21.3379 4.7334 21.7598 3.83105C22.1875 2.92871 22.791 2.2373 23.5703 1.75684C24.3496 1.27051 25.252 1.02734 26.2773 1.02734C27.6367 1.02734 28.7266 1.4082 29.5469 2.16992C30.3672 2.92578 30.8447 3.97461 30.9795 5.31641H29.2832C29.1367 4.29688 28.8174 3.55859 28.3252 3.10156C27.8389 2.64453 27.1562 2.41602 26.2773 2.41602C25.1992 2.41602 24.3525 2.81445 23.7373 3.61133C23.1279 4.4082 22.8232 5.54199 22.8232 7.0127V8.25195C22.8232 9.64062 23.1133 10.7451 23.6934 11.5654C24.2734 12.3857 25.085 12.7959 26.1279 12.7959C27.0654 12.7959 27.7832 12.585 28.2812 12.1631C28.7852 11.7354 29.1191 10.9941 29.2832 9.93945H30.9795ZM40.3574 10.6602H34.9961L33.792 14H32.0518L36.9385 1.20312H38.415L43.3105 14H41.5791L40.3574 10.6602ZM35.5059 9.27148H39.8564L37.6768 3.28613L35.5059 9.27148ZM46.7207 8.99023V14H45.0332V1.20312H49.7529C51.1533 1.20312 52.249 1.56055 53.04 2.27539C53.8369 2.99023 54.2354 3.93652 54.2354 5.11426C54.2354 6.35645 53.8457 7.31445 53.0664 7.98828C52.293 8.65625 51.1826 8.99023 49.7354 8.99023H46.7207ZM46.7207 7.61035H49.7529C50.6553 7.61035 51.3467 7.39941 51.8271 6.97754C52.3076 6.5498 52.5479 5.93457 52.5479 5.13184C52.5479 4.37012 52.3076 3.76074 51.8271 3.30371C51.3467 2.84668 50.6875 2.60938 49.8496 2.5918H46.7207V7.61035ZM60.8535 14V1.20312H64.4658C65.5791 1.20312 66.5635 1.44922 67.4189 1.94141C68.2744 2.43359 68.9336 3.13379 69.3965 4.04199C69.8652 4.9502 70.1025 5.99316 70.1084 7.1709V7.98828C70.1084 9.19531 69.874 10.2529 69.4053 11.1611C68.9424 12.0693 68.2773 12.7666 67.4102 13.2529C66.5488 13.7393 65.5439 13.9883 64.3955 14H60.8535ZM62.541 2.5918V12.6201H64.3164C65.6172 12.6201 66.6279 12.2158 67.3486 11.4072C68.0752 10.5986 68.4385 9.44727 68.4385 7.95312V7.20605C68.4385 5.75293 68.0957 4.625 67.4102 3.82227C66.7305 3.01367 65.7637 2.60352 64.5098 2.5918H62.541ZM74.4766 14H72.7891V1.20312H74.4766V14ZM87.0186 12.3213C86.585 12.9424 85.9785 13.4082 85.1992 13.7188C84.4258 14.0234 83.5234 14.1758 82.4922 14.1758C81.4492 14.1758 80.5234 13.9326 79.7148 13.4463C78.9062 12.9541 78.2793 12.2568 77.834 11.3545C77.3945 10.4521 77.1689 9.40625 77.1572 8.2168V7.10059C77.1572 5.17285 77.6055 3.67871 78.502 2.61816C79.4043 1.55762 80.6699 1.02734 82.2988 1.02734C83.6348 1.02734 84.71 1.37012 85.5244 2.05566C86.3389 2.73535 86.8369 3.70215 87.0186 4.95605H85.3311C85.0146 3.2627 84.0068 2.41602 82.3076 2.41602C81.1768 2.41602 80.3184 2.81445 79.7324 3.61133C79.1523 4.40234 78.8594 5.55078 78.8535 7.05664V8.10254C78.8535 9.53809 79.1816 10.6807 79.8379 11.5303C80.4941 12.374 81.3818 12.7959 82.501 12.7959C83.1338 12.7959 83.6875 12.7256 84.1621 12.585C84.6367 12.4443 85.0293 12.207 85.3398 11.873V8.99902H82.3779V7.62793H87.0186V12.3213ZM91.6504 14H89.9629V1.20312H91.6504V14ZM98.5146 8.2959C97.0674 7.87988 96.0127 7.37012 95.3506 6.7666C94.6943 6.15723 94.3662 5.40723 94.3662 4.5166C94.3662 3.50879 94.7676 2.67676 95.5703 2.02051C96.3789 1.3584 97.4277 1.02734 98.7168 1.02734C99.5957 1.02734 100.378 1.19727 101.063 1.53711C101.755 1.87695 102.288 2.3457 102.663 2.94336C103.044 3.54102 103.234 4.19434 103.234 4.90332H101.538C101.538 4.12988 101.292 3.52344 100.8 3.08398C100.308 2.63867 99.6133 2.41602 98.7168 2.41602C97.8848 2.41602 97.2344 2.60059 96.7656 2.96973C96.3027 3.33301 96.0713 3.83984 96.0713 4.49023C96.0713 5.01172 96.291 5.4541 96.7305 5.81738C97.1758 6.1748 97.9287 6.50293 98.9893 6.80176C100.056 7.10059 100.888 7.43164 101.485 7.79492C102.089 8.15234 102.534 8.57129 102.821 9.05176C103.114 9.53223 103.261 10.0977 103.261 10.748C103.261 11.7852 102.856 12.6172 102.048 13.2441C101.239 13.8652 100.158 14.1758 98.8047 14.1758C97.9258 14.1758 97.1055 14.0088 96.3438 13.6748C95.582 13.335 94.9932 12.8721 94.5771 12.2861C94.167 11.7002 93.9619 11.0352 93.9619 10.291H95.6582C95.6582 11.0645 95.9424 11.6768 96.5107 12.1279C97.085 12.5732 97.8496 12.7959 98.8047 12.7959C99.6953 12.7959 100.378 12.6143 100.853 12.251C101.327 11.8877 101.564 11.3926 101.564 10.7656C101.564 10.1387 101.345 9.65527 100.905 9.31543C100.466 8.96973 99.6689 8.62988 98.5146 8.2959ZM110.125 8.82324H107.119V14H105.423V1.20312H109.659C111.101 1.20312 112.208 1.53125 112.981 2.1875C113.761 2.84375 114.15 3.79883 114.15 5.05273C114.15 5.84961 113.934 6.54395 113.5 7.13574C113.072 7.72754 112.475 8.16992 111.707 8.46289L114.713 13.8945V14H112.902L110.125 8.82324ZM107.119 7.44336H109.712C110.55 7.44336 111.215 7.22656 111.707 6.79297C112.205 6.35938 112.454 5.7793 112.454 5.05273C112.454 4.26172 112.217 3.65527 111.742 3.2334C111.273 2.81152 110.594 2.59766 109.703 2.5918H107.119V7.44336ZM118.334 14H116.646V1.20312H118.334V14ZM123.238 14H121.551V1.20312H123.238V14ZM138.575 9.35059C138.575 10.7979 138.244 11.9639 137.582 12.8486C136.92 13.7334 136.023 14.1758 134.893 14.1758C133.738 14.1758 132.83 13.8096 132.168 13.0771V17.6562H130.542V4.49023H132.027L132.106 5.54492C132.769 4.72461 133.688 4.31445 134.866 4.31445C136.009 4.31445 136.911 4.74512 137.573 5.60645C138.241 6.46777 138.575 7.66602 138.575 9.20117V9.35059ZM136.949 9.16602C136.949 8.09375 136.721 7.24707 136.264 6.62598C135.807 6.00488 135.18 5.69434 134.383 5.69434C133.398 5.69434 132.66 6.13086 132.168 7.00391V11.5479C132.654 12.415 133.398 12.8486 134.4 12.8486C135.18 12.8486 135.798 12.541 136.255 11.9258C136.718 11.3047 136.949 10.3848 136.949 9.16602ZM145.246 5.94922C145 5.9082 144.733 5.8877 144.446 5.8877C143.38 5.8877 142.656 6.3418 142.275 7.25V14H140.649V4.49023H142.231L142.258 5.58887C142.791 4.73926 143.547 4.31445 144.525 4.31445C144.842 4.31445 145.082 4.35547 145.246 4.4375V5.94922ZM146.143 9.15723C146.143 8.22559 146.324 7.3877 146.688 6.64355C147.057 5.89941 147.566 5.3252 148.217 4.9209C148.873 4.5166 149.62 4.31445 150.458 4.31445C151.753 4.31445 152.799 4.7627 153.596 5.65918C154.398 6.55566 154.8 7.74805 154.8 9.23633V9.35059C154.8 10.2764 154.621 11.1084 154.264 11.8467C153.912 12.5791 153.405 13.1504 152.743 13.5605C152.087 13.9707 151.331 14.1758 150.476 14.1758C149.187 14.1758 148.141 13.7275 147.338 12.8311C146.541 11.9346 146.143 10.748 146.143 9.27148V9.15723ZM147.777 9.35059C147.777 10.4053 148.021 11.252 148.507 11.8906C148.999 12.5293 149.655 12.8486 150.476 12.8486C151.302 12.8486 151.958 12.5264 152.444 11.8818C152.931 11.2314 153.174 10.3232 153.174 9.15723C153.174 8.11426 152.925 7.27051 152.427 6.62598C151.935 5.97559 151.278 5.65039 150.458 5.65039C149.655 5.65039 149.008 5.96973 148.516 6.6084C148.023 7.24707 147.777 8.16113 147.777 9.35059ZM159.836 11.7939L162.191 4.49023H163.853L160.442 14H159.203L155.758 4.49023H157.419L159.836 11.7939ZM167.184 14H165.558V4.49023H167.184V14ZM165.426 1.96777C165.426 1.7041 165.505 1.48145 165.663 1.2998C165.827 1.11816 166.067 1.02734 166.384 1.02734C166.7 1.02734 166.94 1.11816 167.104 1.2998C167.269 1.48145 167.351 1.7041 167.351 1.96777C167.351 2.23145 167.269 2.45117 167.104 2.62695C166.94 2.80273 166.7 2.89062 166.384 2.89062C166.067 2.89062 165.827 2.80273 165.663 2.62695C165.505 2.45117 165.426 2.23145 165.426 1.96777ZM169.398 9.16602C169.398 7.70703 169.744 6.53516 170.436 5.65039C171.127 4.75977 172.032 4.31445 173.151 4.31445C174.265 4.31445 175.146 4.69531 175.797 5.45703V0.5H177.423V14H175.929L175.85 12.9805C175.199 13.7773 174.294 14.1758 173.134 14.1758C172.032 14.1758 171.133 13.7246 170.436 12.8223C169.744 11.9199 169.398 10.7422 169.398 9.28906V9.16602ZM171.024 9.35059C171.024 10.4287 171.247 11.2725 171.692 11.8818C172.138 12.4912 172.753 12.7959 173.538 12.7959C174.569 12.7959 175.322 12.333 175.797 11.4072V7.03906C175.311 6.14258 174.563 5.69434 173.556 5.69434C172.759 5.69434 172.138 6.00195 171.692 6.61719C171.247 7.23242 171.024 8.14355 171.024 9.35059ZM183.9 14.1758C182.611 14.1758 181.562 13.7539 180.754 12.9102C179.945 12.0605 179.541 10.9268 179.541 9.50879V9.20996C179.541 8.2666 179.72 7.42578 180.077 6.6875C180.44 5.94336 180.944 5.36328 181.589 4.94727C182.239 4.52539 182.942 4.31445 183.698 4.31445C184.935 4.31445 185.896 4.72168 186.581 5.53613C187.267 6.35059 187.609 7.5166 187.609 9.03418V9.71094H181.167C181.19 10.6484 181.463 11.4072 181.984 11.9873C182.512 12.5615 183.18 12.8486 183.988 12.8486C184.562 12.8486 185.049 12.7314 185.447 12.4971C185.846 12.2627 186.194 11.9521 186.493 11.5654L187.486 12.3389C186.689 13.5635 185.494 14.1758 183.9 14.1758ZM183.698 5.65039C183.042 5.65039 182.491 5.89062 182.046 6.37109C181.601 6.8457 181.325 7.51367 181.22 8.375H185.983V8.25195C185.937 7.42578 185.714 6.78711 185.315 6.33594C184.917 5.87891 184.378 5.65039 183.698 5.65039ZM195.036 11.4775C195.036 11.0381 194.869 10.6982 194.535 10.458C194.207 10.2119 193.63 10.001 192.804 9.8252C191.983 9.64941 191.33 9.43848 190.844 9.19238C190.363 8.94629 190.006 8.65332 189.771 8.31348C189.543 7.97363 189.429 7.56934 189.429 7.10059C189.429 6.32129 189.757 5.66211 190.413 5.12305C191.075 4.58398 191.919 4.31445 192.944 4.31445C194.022 4.31445 194.896 4.59277 195.563 5.14941C196.237 5.70605 196.574 6.41797 196.574 7.28516H194.939C194.939 6.83984 194.749 6.45605 194.368 6.13379C193.993 5.81152 193.519 5.65039 192.944 5.65039C192.353 5.65039 191.89 5.7793 191.556 6.03711C191.222 6.29492 191.055 6.63184 191.055 7.04785C191.055 7.44043 191.21 7.73633 191.521 7.93555C191.831 8.13477 192.391 8.3252 193.199 8.50684C194.014 8.68848 194.673 8.90527 195.177 9.15723C195.681 9.40918 196.053 9.71387 196.293 10.0713C196.539 10.4229 196.662 10.8535 196.662 11.3633C196.662 12.2129 196.322 12.8955 195.643 13.4111C194.963 13.9209 194.081 14.1758 192.997 14.1758C192.235 14.1758 191.562 14.041 190.976 13.7715C190.39 13.502 189.93 13.127 189.596 12.6465C189.268 12.1602 189.104 11.6357 189.104 11.0732H190.729C190.759 11.6182 190.976 12.0518 191.38 12.374C191.79 12.6904 192.329 12.8486 192.997 12.8486C193.612 12.8486 194.104 12.7256 194.474 12.4795C194.849 12.2275 195.036 11.8936 195.036 11.4775ZM205.012 14H203.386V4.49023H205.012V14ZM203.254 1.96777C203.254 1.7041 203.333 1.48145 203.491 1.2998C203.655 1.11816 203.896 1.02734 204.212 1.02734C204.528 1.02734 204.769 1.11816 204.933 1.2998C205.097 1.48145 205.179 1.7041 205.179 1.96777C205.179 2.23145 205.097 2.45117 204.933 2.62695C204.769 2.80273 204.528 2.89062 204.212 2.89062C203.896 2.89062 203.655 2.80273 203.491 2.62695C203.333 2.45117 203.254 2.23145 203.254 1.96777ZM209.16 4.49023L209.213 5.68555C209.939 4.77148 210.889 4.31445 212.061 4.31445C214.07 4.31445 215.084 5.44824 215.102 7.71582V14H213.476V7.70703C213.47 7.02148 213.312 6.51465 213.001 6.18652C212.696 5.8584 212.219 5.69434 211.568 5.69434C211.041 5.69434 210.578 5.83496 210.18 6.11621C209.781 6.39746 209.471 6.7666 209.248 7.22363V14H207.622V4.49023H209.16ZM223.091 11.4775C223.091 11.0381 222.924 10.6982 222.59 10.458C222.262 10.2119 221.685 10.001 220.858 9.8252C220.038 9.64941 219.385 9.43848 218.898 9.19238C218.418 8.94629 218.061 8.65332 217.826 8.31348C217.598 7.97363 217.483 7.56934 217.483 7.10059C217.483 6.32129 217.812 5.66211 218.468 5.12305C219.13 4.58398 219.974 4.31445 220.999 4.31445C222.077 4.31445 222.95 4.59277 223.618 5.14941C224.292 5.70605 224.629 6.41797 224.629 7.28516H222.994C222.994 6.83984 222.804 6.45605 222.423 6.13379C222.048 5.81152 221.573 5.65039 220.999 5.65039C220.407 5.65039 219.944 5.7793 219.61 6.03711C219.276 6.29492 219.109 6.63184 219.109 7.04785C219.109 7.44043 219.265 7.73633 219.575 7.93555C219.886 8.13477 220.445 8.3252 221.254 8.50684C222.068 8.68848 222.728 8.90527 223.231 9.15723C223.735 9.40918 224.107 9.71387 224.348 10.0713C224.594 10.4229 224.717 10.8535 224.717 11.3633C224.717 12.2129 224.377 12.8955 223.697 13.4111C223.018 13.9209 222.136 14.1758 221.052 14.1758C220.29 14.1758 219.616 14.041 219.03 13.7715C218.444 13.502 217.984 13.127 217.65 12.6465C217.322 12.1602 217.158 11.6357 217.158 11.0732H218.784C218.813 11.6182 219.03 12.0518 219.435 12.374C219.845 12.6904 220.384 12.8486 221.052 12.8486C221.667 12.8486 222.159 12.7256 222.528 12.4795C222.903 12.2275 223.091 11.8936 223.091 11.4775ZM228.602 14H226.976V4.49023H228.602V14ZM226.844 1.96777C226.844 1.7041 226.923 1.48145 227.081 1.2998C227.245 1.11816 227.485 1.02734 227.802 1.02734C228.118 1.02734 228.358 1.11816 228.522 1.2998C228.687 1.48145 228.769 1.7041 228.769 1.96777C228.769 2.23145 228.687 2.45117 228.522 2.62695C228.358 2.80273 228.118 2.89062 227.802 2.89062C227.485 2.89062 227.245 2.80273 227.081 2.62695C226.923 2.45117 226.844 2.23145 226.844 1.96777ZM230.825 9.16602C230.825 7.68359 231.168 6.50586 231.854 5.63281C232.539 4.75391 233.447 4.31445 234.578 4.31445C235.738 4.31445 236.644 4.72461 237.294 5.54492L237.373 4.49023H238.858V13.7715C238.858 15.002 238.492 15.9717 237.76 16.6807C237.033 17.3896 236.055 17.7441 234.824 17.7441C234.139 17.7441 233.468 17.5977 232.812 17.3047C232.155 17.0117 231.654 16.6104 231.309 16.1006L232.152 15.125C232.85 15.9863 233.702 16.417 234.71 16.417C235.501 16.417 236.116 16.1943 236.556 15.749C237.001 15.3037 237.224 14.6768 237.224 13.8682V13.0508C236.573 13.8008 235.686 14.1758 234.561 14.1758C233.447 14.1758 232.545 13.7275 231.854 12.8311C231.168 11.9346 230.825 10.7129 230.825 9.16602ZM232.46 9.35059C232.46 10.4229 232.68 11.2666 233.119 11.8818C233.559 12.4912 234.174 12.7959 234.965 12.7959C235.99 12.7959 236.743 12.3301 237.224 11.3984V7.05664C236.726 6.14844 235.979 5.69434 234.982 5.69434C234.191 5.69434 233.573 6.00195 233.128 6.61719C232.683 7.23242 232.46 8.14355 232.46 9.35059ZM242.945 5.6416C243.666 4.75684 244.604 4.31445 245.758 4.31445C247.768 4.31445 248.781 5.44824 248.799 7.71582V14H247.173V7.70703C247.167 7.02148 247.009 6.51465 246.698 6.18652C246.394 5.8584 245.916 5.69434 245.266 5.69434C244.738 5.69434 244.275 5.83496 243.877 6.11621C243.479 6.39746 243.168 6.7666 242.945 7.22363V14H241.319V0.5H242.945V5.6416ZM253.439 2.1875V4.49023H255.215V5.74707H253.439V11.6445C253.439 12.0254 253.519 12.3125 253.677 12.5059C253.835 12.6934 254.104 12.7871 254.485 12.7871C254.673 12.7871 254.931 12.752 255.259 12.6816V14C254.831 14.1172 254.415 14.1758 254.011 14.1758C253.284 14.1758 252.736 13.9561 252.367 13.5166C251.998 13.0771 251.813 12.4531 251.813 11.6445V5.74707H250.082V4.49023H251.813V2.1875H253.439ZM262.659 11.4775C262.659 11.0381 262.492 10.6982 262.158 10.458C261.83 10.2119 261.253 10.001 260.427 9.8252C259.606 9.64941 258.953 9.43848 258.467 9.19238C257.986 8.94629 257.629 8.65332 257.395 8.31348C257.166 7.97363 257.052 7.56934 257.052 7.10059C257.052 6.32129 257.38 5.66211 258.036 5.12305C258.698 4.58398 259.542 4.31445 260.567 4.31445C261.646 4.31445 262.519 4.59277 263.187 5.14941C263.86 5.70605 264.197 6.41797 264.197 7.28516H262.562C262.562 6.83984 262.372 6.45605 261.991 6.13379C261.616 5.81152 261.142 5.65039 260.567 5.65039C259.976 5.65039 259.513 5.7793 259.179 6.03711C258.845 6.29492 258.678 6.63184 258.678 7.04785C258.678 7.44043 258.833 7.73633 259.144 7.93555C259.454 8.13477 260.014 8.3252 260.822 8.50684C261.637 8.68848 262.296 8.90527 262.8 9.15723C263.304 9.40918 263.676 9.71387 263.916 10.0713C264.162 10.4229 264.285 10.8535 264.285 11.3633C264.285 12.2129 263.945 12.8955 263.266 13.4111C262.586 13.9209 261.704 14.1758 260.62 14.1758C259.858 14.1758 259.185 14.041 258.599 13.7715C258.013 13.502 257.553 13.127 257.219 12.6465C256.891 12.1602 256.727 11.6357 256.727 11.0732H258.353C258.382 11.6182 258.599 12.0518 259.003 12.374C259.413 12.6904 259.952 12.8486 260.62 12.8486C261.235 12.8486 261.728 12.7256 262.097 12.4795C262.472 12.2275 262.659 11.8936 262.659 11.4775ZM270.438 9.15723C270.438 8.22559 270.619 7.3877 270.982 6.64355C271.352 5.89941 271.861 5.3252 272.512 4.9209C273.168 4.5166 273.915 4.31445 274.753 4.31445C276.048 4.31445 277.094 4.7627 277.891 5.65918C278.693 6.55566 279.095 7.74805 279.095 9.23633V9.35059C279.095 10.2764 278.916 11.1084 278.559 11.8467C278.207 12.5791 277.7 13.1504 277.038 13.5605C276.382 13.9707 275.626 14.1758 274.771 14.1758C273.481 14.1758 272.436 13.7275 271.633 12.8311C270.836 11.9346 270.438 10.748 270.438 9.27148V9.15723ZM272.072 9.35059C272.072 10.4053 272.315 11.252 272.802 11.8906C273.294 12.5293 273.95 12.8486 274.771 12.8486C275.597 12.8486 276.253 12.5264 276.739 11.8818C277.226 11.2314 277.469 10.3232 277.469 9.15723C277.469 8.11426 277.22 7.27051 276.722 6.62598C276.229 5.97559 275.573 5.65039 274.753 5.65039C273.95 5.65039 273.303 5.96973 272.811 6.6084C272.318 7.24707 272.072 8.16113 272.072 9.35059ZM282.672 4.49023L282.725 5.68555C283.451 4.77148 284.4 4.31445 285.572 4.31445C287.582 4.31445 288.596 5.44824 288.613 7.71582V14H286.987V7.70703C286.981 7.02148 286.823 6.51465 286.513 6.18652C286.208 5.8584 285.73 5.69434 285.08 5.69434C284.553 5.69434 284.09 5.83496 283.691 6.11621C283.293 6.39746 282.982 6.7666 282.76 7.22363V14H281.134V4.49023H282.672ZM297.736 2.1875V4.49023H299.512V5.74707H297.736V11.6445C297.736 12.0254 297.815 12.3125 297.974 12.5059C298.132 12.6934 298.401 12.7871 298.782 12.7871C298.97 12.7871 299.228 12.752 299.556 12.6816V14C299.128 14.1172 298.712 14.1758 298.308 14.1758C297.581 14.1758 297.033 13.9561 296.664 13.5166C296.295 13.0771 296.11 12.4531 296.11 11.6445V5.74707H294.379V4.49023H296.11V2.1875H297.736ZM303.045 5.6416C303.766 4.75684 304.703 4.31445 305.857 4.31445C307.867 4.31445 308.881 5.44824 308.898 7.71582V14H307.272V7.70703C307.267 7.02148 307.108 6.51465 306.798 6.18652C306.493 5.8584 306.016 5.69434 305.365 5.69434C304.838 5.69434 304.375 5.83496 303.977 6.11621C303.578 6.39746 303.268 6.7666 303.045 7.22363V14H301.419V0.5H303.045V5.6416ZM315.279 14.1758C313.99 14.1758 312.941 13.7539 312.133 12.9102C311.324 12.0605 310.92 10.9268 310.92 9.50879V9.20996C310.92 8.2666 311.099 7.42578 311.456 6.6875C311.819 5.94336 312.323 5.36328 312.968 4.94727C313.618 4.52539 314.321 4.31445 315.077 4.31445C316.313 4.31445 317.274 4.72168 317.96 5.53613C318.646 6.35059 318.988 7.5166 318.988 9.03418V9.71094H312.546C312.569 10.6484 312.842 11.4072 313.363 11.9873C313.891 12.5615 314.559 12.8486 315.367 12.8486C315.941 12.8486 316.428 12.7314 316.826 12.4971C317.225 12.2627 317.573 11.9521 317.872 11.5654L318.865 12.3389C318.068 13.5635 316.873 14.1758 315.279 14.1758ZM315.077 5.65039C314.421 5.65039 313.87 5.89062 313.425 6.37109C312.979 6.8457 312.704 7.51367 312.599 8.375H317.362V8.25195C317.315 7.42578 317.093 6.78711 316.694 6.33594C316.296 5.87891 315.757 5.65039 315.077 5.65039ZM330.88 11.4775C330.88 11.0381 330.713 10.6982 330.379 10.458C330.051 10.2119 329.474 10.001 328.647 9.8252C327.827 9.64941 327.174 9.43848 326.688 9.19238C326.207 8.94629 325.85 8.65332 325.615 8.31348C325.387 7.97363 325.272 7.56934 325.272 7.10059C325.272 6.32129 325.601 5.66211 326.257 5.12305C326.919 4.58398 327.763 4.31445 328.788 4.31445C329.866 4.31445 330.739 4.59277 331.407 5.14941C332.081 5.70605 332.418 6.41797 332.418 7.28516H330.783C330.783 6.83984 330.593 6.45605 330.212 6.13379C329.837 5.81152 329.362 5.65039 328.788 5.65039C328.196 5.65039 327.733 5.7793 327.399 6.03711C327.065 6.29492 326.898 6.63184 326.898 7.04785C326.898 7.44043 327.054 7.73633 327.364 7.93555C327.675 8.13477 328.234 8.3252 329.043 8.50684C329.857 8.68848 330.517 8.90527 331.021 9.15723C331.524 9.40918 331.896 9.71387 332.137 10.0713C332.383 10.4229 332.506 10.8535 332.506 11.3633C332.506 12.2129 332.166 12.8955 331.486 13.4111C330.807 13.9209 329.925 14.1758 328.841 14.1758C328.079 14.1758 327.405 14.041 326.819 13.7715C326.233 13.502 325.773 13.127 325.439 12.6465C325.111 12.1602 324.947 11.6357 324.947 11.0732H326.573C326.603 11.6182 326.819 12.0518 327.224 12.374C327.634 12.6904 328.173 12.8486 328.841 12.8486C329.456 12.8486 329.948 12.7256 330.317 12.4795C330.692 12.2275 330.88 11.8936 330.88 11.4775ZM336.83 2.1875V4.49023H338.605V5.74707H336.83V11.6445C336.83 12.0254 336.909 12.3125 337.067 12.5059C337.226 12.6934 337.495 12.7871 337.876 12.7871C338.063 12.7871 338.321 12.752 338.649 12.6816V14C338.222 14.1172 337.806 14.1758 337.401 14.1758C336.675 14.1758 336.127 13.9561 335.758 13.5166C335.389 13.0771 335.204 12.4531 335.204 11.6445V5.74707H333.473V4.49023H335.204V2.1875H336.83ZM345.109 5.94922C344.863 5.9082 344.597 5.8877 344.31 5.8877C343.243 5.8877 342.52 6.3418 342.139 7.25V14H340.513V4.49023H342.095L342.121 5.58887C342.654 4.73926 343.41 4.31445 344.389 4.31445C344.705 4.31445 344.945 4.35547 345.109 4.4375V5.94922ZM352.483 13.0596C351.851 13.8037 350.922 14.1758 349.697 14.1758C348.684 14.1758 347.91 13.8828 347.377 13.2969C346.85 12.7051 346.583 11.832 346.577 10.6777V4.49023H348.203V10.6338C348.203 12.0752 348.789 12.7959 349.961 12.7959C351.203 12.7959 352.029 12.333 352.439 11.4072V4.49023H354.065V14H352.519L352.483 13.0596ZM360.358 12.8486C360.938 12.8486 361.445 12.6729 361.879 12.3213C362.312 11.9697 362.553 11.5303 362.6 11.0029H364.138C364.108 11.5479 363.921 12.0664 363.575 12.5586C363.229 13.0508 362.767 13.4434 362.187 13.7363C361.612 14.0293 361.003 14.1758 360.358 14.1758C359.063 14.1758 358.032 13.7451 357.265 12.8838C356.503 12.0166 356.122 10.833 356.122 9.33301V9.06055C356.122 8.13477 356.292 7.31152 356.632 6.59082C356.972 5.87012 357.458 5.31055 358.091 4.91211C358.729 4.51367 359.482 4.31445 360.35 4.31445C361.416 4.31445 362.301 4.63379 363.004 5.27246C363.713 5.91113 364.091 6.74023 364.138 7.75977H362.6C362.553 7.14453 362.318 6.64062 361.896 6.24805C361.48 5.84961 360.965 5.65039 360.35 5.65039C359.523 5.65039 358.882 5.94922 358.425 6.54688C357.974 7.13867 357.748 7.99707 357.748 9.12207V9.42969C357.748 10.5254 357.974 11.3691 358.425 11.9609C358.876 12.5527 359.521 12.8486 360.358 12.8486ZM368.172 2.1875V4.49023H369.947V5.74707H368.172V11.6445C368.172 12.0254 368.251 12.3125 368.409 12.5059C368.567 12.6934 368.837 12.7871 369.218 12.7871C369.405 12.7871 369.663 12.752 369.991 12.6816V14C369.563 14.1172 369.147 14.1758 368.743 14.1758C368.017 14.1758 367.469 13.9561 367.1 13.5166C366.73 13.0771 366.546 12.4531 366.546 11.6445V5.74707H364.814V4.49023H366.546V2.1875H368.172ZM377.726 13.0596C377.093 13.8037 376.164 14.1758 374.939 14.1758C373.926 14.1758 373.152 13.8828 372.619 13.2969C372.092 12.7051 371.825 11.832 371.819 10.6777V4.49023H373.445V10.6338C373.445 12.0752 374.031 12.7959 375.203 12.7959C376.445 12.7959 377.271 12.333 377.682 11.4072V4.49023H379.308V14H377.761L377.726 13.0596ZM386.383 5.94922C386.137 5.9082 385.87 5.8877 385.583 5.8877C384.517 5.8877 383.793 6.3418 383.412 7.25V14H381.786V4.49023H383.368L383.395 5.58887C383.928 4.73926 384.684 4.31445 385.662 4.31445C385.979 4.31445 386.219 4.35547 386.383 4.4375V5.94922ZM391.656 14.1758C390.367 14.1758 389.318 13.7539 388.51 12.9102C387.701 12.0605 387.297 10.9268 387.297 9.50879V9.20996C387.297 8.2666 387.476 7.42578 387.833 6.6875C388.196 5.94336 388.7 5.36328 389.345 4.94727C389.995 4.52539 390.698 4.31445 391.454 4.31445C392.69 4.31445 393.651 4.72168 394.337 5.53613C395.022 6.35059 395.365 7.5166 395.365 9.03418V9.71094H388.923C388.946 10.6484 389.219 11.4072 389.74 11.9873C390.268 12.5615 390.936 12.8486 391.744 12.8486C392.318 12.8486 392.805 12.7314 393.203 12.4971C393.602 12.2627 393.95 11.9521 394.249 11.5654L395.242 12.3389C394.445 13.5635 393.25 14.1758 391.656 14.1758ZM391.454 5.65039C390.798 5.65039 390.247 5.89062 389.802 6.37109C389.356 6.8457 389.081 7.51367 388.976 8.375H393.739V8.25195C393.692 7.42578 393.47 6.78711 393.071 6.33594C392.673 5.87891 392.134 5.65039 391.454 5.65039ZM407.591 14C407.497 13.8125 407.421 13.4785 407.362 12.998C406.606 13.7832 405.704 14.1758 404.655 14.1758C403.718 14.1758 402.947 13.9121 402.344 13.3848C401.746 12.8516 401.447 12.1777 401.447 11.3633C401.447 10.373 401.822 9.60547 402.572 9.06055C403.328 8.50977 404.389 8.23438 405.754 8.23438H407.336V7.4873C407.336 6.91895 407.166 6.46777 406.826 6.13379C406.486 5.79395 405.985 5.62402 405.323 5.62402C404.743 5.62402 404.257 5.77051 403.864 6.06348C403.472 6.35645 403.275 6.71094 403.275 7.12695H401.641C401.641 6.65234 401.808 6.19531 402.142 5.75586C402.481 5.31055 402.938 4.95898 403.513 4.70117C404.093 4.44336 404.729 4.31445 405.42 4.31445C406.516 4.31445 407.374 4.58984 407.995 5.14062C408.616 5.68555 408.938 6.43848 408.962 7.39941V11.7764C408.962 12.6494 409.073 13.3438 409.296 13.8594V14H407.591ZM404.893 12.7607C405.402 12.7607 405.886 12.6289 406.343 12.3652C406.8 12.1016 407.131 11.7588 407.336 11.3369V9.38574H406.062C404.069 9.38574 403.073 9.96875 403.073 11.1348C403.073 11.6445 403.243 12.043 403.583 12.3301C403.923 12.6172 404.359 12.7607 404.893 12.7607ZM413.049 4.49023L413.102 5.68555C413.828 4.77148 414.777 4.31445 415.949 4.31445C417.959 4.31445 418.973 5.44824 418.99 7.71582V14H417.364V7.70703C417.358 7.02148 417.2 6.51465 416.89 6.18652C416.585 5.8584 416.107 5.69434 415.457 5.69434C414.93 5.69434 414.467 5.83496 414.068 6.11621C413.67 6.39746 413.359 6.7666 413.137 7.22363V14H411.511V4.49023H413.049ZM421.047 9.16602C421.047 7.70703 421.393 6.53516 422.084 5.65039C422.775 4.75977 423.681 4.31445 424.8 4.31445C425.913 4.31445 426.795 4.69531 427.445 5.45703V0.5H429.071V14H427.577L427.498 12.9805C426.848 13.7773 425.942 14.1758 424.782 14.1758C423.681 14.1758 422.781 13.7246 422.084 12.8223C421.393 11.9199 421.047 10.7422 421.047 9.28906V9.16602ZM422.673 9.35059C422.673 10.4287 422.896 11.2725 423.341 11.8818C423.786 12.4912 424.401 12.7959 425.187 12.7959C426.218 12.7959 426.971 12.333 427.445 11.4072V7.03906C426.959 6.14258 426.212 5.69434 425.204 5.69434C424.407 5.69434 423.786 6.00195 423.341 6.61719C422.896 7.23242 422.673 8.14355 422.673 9.35059ZM37.6504 30.3506C37.6504 31.7979 37.3193 32.9639 36.6572 33.8486C35.9951 34.7334 35.0986 35.1758 33.9678 35.1758C32.8135 35.1758 31.9053 34.8096 31.2432 34.0771V38.6562H29.6172V25.4902H31.1025L31.1816 26.5449C31.8438 25.7246 32.7637 25.3145 33.9414 25.3145C35.084 25.3145 35.9863 25.7451 36.6484 26.6064C37.3164 27.4678 37.6504 28.666 37.6504 30.2012V30.3506ZM36.0244 30.166C36.0244 29.0938 35.7959 28.2471 35.3389 27.626C34.8818 27.0049 34.2549 26.6943 33.458 26.6943C32.4736 26.6943 31.7354 27.1309 31.2432 28.0039V32.5479C31.7295 33.415 32.4736 33.8486 33.4756 33.8486C34.2549 33.8486 34.873 33.541 35.3301 32.9258C35.793 32.3047 36.0244 31.3848 36.0244 30.166ZM44.3213 26.9492C44.0752 26.9082 43.8086 26.8877 43.5215 26.8877C42.4551 26.8877 41.7314 27.3418 41.3506 28.25V35H39.7246V25.4902H41.3066L41.333 26.5889C41.8662 25.7393 42.6221 25.3145 43.6006 25.3145C43.917 25.3145 44.1572 25.3555 44.3213 25.4375V26.9492ZM45.2178 30.1572C45.2178 29.2256 45.3994 28.3877 45.7627 27.6436C46.1318 26.8994 46.6416 26.3252 47.292 25.9209C47.9482 25.5166 48.6953 25.3145 49.5332 25.3145C50.8281 25.3145 51.874 25.7627 52.6709 26.6592C53.4736 27.5557 53.875 28.748 53.875 30.2363V30.3506C53.875 31.2764 53.6963 32.1084 53.3389 32.8467C52.9873 33.5791 52.4805 34.1504 51.8184 34.5605C51.1621 34.9707 50.4062 35.1758 49.5508 35.1758C48.2617 35.1758 47.2158 34.7275 46.4131 33.8311C45.6162 32.9346 45.2178 31.748 45.2178 30.2715V30.1572ZM46.8525 30.3506C46.8525 31.4053 47.0957 32.252 47.582 32.8906C48.0742 33.5293 48.7305 33.8486 49.5508 33.8486C50.377 33.8486 51.0332 33.5264 51.5195 32.8818C52.0059 32.2314 52.249 31.3232 52.249 30.1572C52.249 29.1143 52 28.2705 51.502 27.626C51.0098 26.9756 50.3535 26.6504 49.5332 26.6504C48.7305 26.6504 48.083 26.9697 47.5908 27.6084C47.0986 28.2471 46.8525 29.1611 46.8525 30.3506ZM55.5273 30.166C55.5273 28.6836 55.8701 27.5059 56.5557 26.6328C57.2412 25.7539 58.1494 25.3145 59.2803 25.3145C60.4404 25.3145 61.3457 25.7246 61.9961 26.5449L62.0752 25.4902H63.5605V34.7715C63.5605 36.002 63.1943 36.9717 62.4619 37.6807C61.7354 38.3896 60.7568 38.7441 59.5264 38.7441C58.8408 38.7441 58.1699 38.5977 57.5137 38.3047C56.8574 38.0117 56.3564 37.6104 56.0107 37.1006L56.8545 36.125C57.5518 36.9863 58.4043 37.417 59.4121 37.417C60.2031 37.417 60.8184 37.1943 61.2578 36.749C61.7031 36.3037 61.9258 35.6768 61.9258 34.8682V34.0508C61.2754 34.8008 60.3877 35.1758 59.2627 35.1758C58.1494 35.1758 57.2471 34.7275 56.5557 33.8311C55.8701 32.9346 55.5273 31.7129 55.5273 30.166ZM57.1621 30.3506C57.1621 31.4229 57.3818 32.2666 57.8213 32.8818C58.2607 33.4912 58.876 33.7959 59.667 33.7959C60.6924 33.7959 61.4453 33.3301 61.9258 32.3984V28.0566C61.4277 27.1484 60.6807 26.6943 59.6846 26.6943C58.8936 26.6943 58.2754 27.002 57.8301 27.6172C57.3848 28.2324 57.1621 29.1436 57.1621 30.3506ZM70.6182 26.9492C70.3721 26.9082 70.1055 26.8877 69.8184 26.8877C68.752 26.8877 68.0283 27.3418 67.6475 28.25V35H66.0215V25.4902H67.6035L67.6299 26.5889C68.1631 25.7393 68.9189 25.3145 69.8975 25.3145C70.2139 25.3145 70.4541 25.3555 70.6182 25.4375V26.9492ZM75.8916 35.1758C74.6025 35.1758 73.5537 34.7539 72.7451 33.9102C71.9365 33.0605 71.5322 31.9268 71.5322 30.5088V30.21C71.5322 29.2666 71.7109 28.4258 72.0684 27.6875C72.4316 26.9434 72.9355 26.3633 73.5801 25.9473C74.2305 25.5254 74.9336 25.3145 75.6895 25.3145C76.9258 25.3145 77.8867 25.7217 78.5723 26.5361C79.2578 27.3506 79.6006 28.5166 79.6006 30.0342V30.7109H73.1582C73.1816 31.6484 73.4541 32.4072 73.9756 32.9873C74.5029 33.5615 75.1709 33.8486 75.9795 33.8486C76.5537 33.8486 77.04 33.7314 77.4385 33.4971C77.8369 33.2627 78.1855 32.9521 78.4844 32.5654L79.4775 33.3389C78.6807 34.5635 77.4854 35.1758 75.8916 35.1758ZM75.6895 26.6504C75.0332 26.6504 74.4824 26.8906 74.0371 27.3711C73.5918 27.8457 73.3164 28.5137 73.2109 29.375H77.9746V29.252C77.9277 28.4258 77.7051 27.7871 77.3066 27.3359C76.9082 26.8789 76.3691 26.6504 75.6895 26.6504ZM87.0273 32.4775C87.0273 32.0381 86.8604 31.6982 86.5264 31.458C86.1982 31.2119 85.6211 31.001 84.7949 30.8252C83.9746 30.6494 83.3213 30.4385 82.835 30.1924C82.3545 29.9463 81.9971 29.6533 81.7627 29.3135C81.5342 28.9736 81.4199 28.5693 81.4199 28.1006C81.4199 27.3213 81.748 26.6621 82.4043 26.123C83.0664 25.584 83.9102 25.3145 84.9355 25.3145C86.0137 25.3145 86.8867 25.5928 87.5547 26.1494C88.2285 26.7061 88.5654 27.418 88.5654 28.2852H86.9307C86.9307 27.8398 86.7402 27.4561 86.3594 27.1338C85.9844 26.8115 85.5098 26.6504 84.9355 26.6504C84.3438 26.6504 83.8809 26.7793 83.5469 27.0371C83.2129 27.2949 83.0459 27.6318 83.0459 28.0479C83.0459 28.4404 83.2012 28.7363 83.5117 28.9355C83.8223 29.1348 84.3818 29.3252 85.1904 29.5068C86.0049 29.6885 86.6641 29.9053 87.168 30.1572C87.6719 30.4092 88.0439 30.7139 88.2842 31.0713C88.5303 31.4229 88.6533 31.8535 88.6533 32.3633C88.6533 33.2129 88.3135 33.8955 87.6338 34.4111C86.9541 34.9209 86.0723 35.1758 84.9883 35.1758C84.2266 35.1758 83.5527 35.041 82.9668 34.7715C82.3809 34.502 81.9209 34.127 81.5869 33.6465C81.2588 33.1602 81.0947 32.6357 81.0947 32.0732H82.7207C82.75 32.6182 82.9668 33.0518 83.3711 33.374C83.7812 33.6904 84.3203 33.8486 84.9883 33.8486C85.6035 33.8486 86.0957 33.7256 86.4648 33.4795C86.8398 33.2275 87.0273 32.8936 87.0273 32.4775ZM96.3086 32.4775C96.3086 32.0381 96.1416 31.6982 95.8076 31.458C95.4795 31.2119 94.9023 31.001 94.0762 30.8252C93.2559 30.6494 92.6025 30.4385 92.1162 30.1924C91.6357 29.9463 91.2783 29.6533 91.0439 29.3135C90.8154 28.9736 90.7012 28.5693 90.7012 28.1006C90.7012 27.3213 91.0293 26.6621 91.6855 26.123C92.3477 25.584 93.1914 25.3145 94.2168 25.3145C95.2949 25.3145 96.168 25.5928 96.8359 26.1494C97.5098 26.7061 97.8467 27.418 97.8467 28.2852H96.2119C96.2119 27.8398 96.0215 27.4561 95.6406 27.1338C95.2656 26.8115 94.791 26.6504 94.2168 26.6504C93.625 26.6504 93.1621 26.7793 92.8281 27.0371C92.4941 27.2949 92.3271 27.6318 92.3271 28.0479C92.3271 28.4404 92.4824 28.7363 92.793 28.9355C93.1035 29.1348 93.6631 29.3252 94.4717 29.5068C95.2861 29.6885 95.9453 29.9053 96.4492 30.1572C96.9531 30.4092 97.3252 30.7139 97.5654 31.0713C97.8115 31.4229 97.9346 31.8535 97.9346 32.3633C97.9346 33.2129 97.5947 33.8955 96.915 34.4111C96.2354 34.9209 95.3535 35.1758 94.2695 35.1758C93.5078 35.1758 92.834 35.041 92.248 34.7715C91.6621 34.502 91.2021 34.127 90.8682 33.6465C90.54 33.1602 90.376 32.6357 90.376 32.0732H92.002C92.0312 32.6182 92.248 33.0518 92.6523 33.374C93.0625 33.6904 93.6016 33.8486 94.2695 33.8486C94.8848 33.8486 95.377 33.7256 95.7461 33.4795C96.1211 33.2275 96.3086 32.8936 96.3086 32.4775ZM104.087 30.1572C104.087 29.2256 104.269 28.3877 104.632 27.6436C105.001 26.8994 105.511 26.3252 106.161 25.9209C106.817 25.5166 107.564 25.3145 108.402 25.3145C109.697 25.3145 110.743 25.7627 111.54 26.6592C112.343 27.5557 112.744 28.748 112.744 30.2363V30.3506C112.744 31.2764 112.565 32.1084 112.208 32.8467C111.856 33.5791 111.35 34.1504 110.688 34.5605C110.031 34.9707 109.275 35.1758 108.42 35.1758C107.131 35.1758 106.085 34.7275 105.282 33.8311C104.485 32.9346 104.087 31.748 104.087 30.2715V30.1572ZM105.722 30.3506C105.722 31.4053 105.965 32.252 106.451 32.8906C106.943 33.5293 107.6 33.8486 108.42 33.8486C109.246 33.8486 109.902 33.5264 110.389 32.8818C110.875 32.2314 111.118 31.3232 111.118 30.1572C111.118 29.1143 110.869 28.2705 110.371 27.626C109.879 26.9756 109.223 26.6504 108.402 26.6504C107.6 26.6504 106.952 26.9697 106.46 27.6084C105.968 28.2471 105.722 29.1611 105.722 30.3506ZM115.583 35V26.7471H114.08V25.4902H115.583V24.5146C115.583 23.4951 115.855 22.707 116.4 22.1504C116.945 21.5938 117.716 21.3154 118.712 21.3154C119.087 21.3154 119.459 21.3652 119.828 21.4648L119.74 22.7832C119.465 22.7305 119.172 22.7041 118.861 22.7041C118.334 22.7041 117.927 22.8594 117.64 23.1699C117.353 23.4746 117.209 23.9141 117.209 24.4883V25.4902H119.239V26.7471H117.209V35H115.583ZM127.571 35H125.884V22.2031H127.571V35ZM131.948 25.4902L132.001 26.6855C132.728 25.7715 133.677 25.3145 134.849 25.3145C136.858 25.3145 137.872 26.4482 137.89 28.7158V35H136.264V28.707C136.258 28.0215 136.1 27.5146 135.789 27.1865C135.484 26.8584 135.007 26.6943 134.356 26.6943C133.829 26.6943 133.366 26.835 132.968 27.1162C132.569 27.3975 132.259 27.7666 132.036 28.2236V35H130.41V25.4902H131.948ZM142.548 23.1875V25.4902H144.323V26.7471H142.548V32.6445C142.548 33.0254 142.627 33.3125 142.785 33.5059C142.943 33.6934 143.213 33.7871 143.594 33.7871C143.781 33.7871 144.039 33.752 144.367 33.6816V35C143.939 35.1172 143.523 35.1758 143.119 35.1758C142.393 35.1758 141.845 34.9561 141.476 34.5166C141.106 34.0771 140.922 33.4531 140.922 32.6445V26.7471H139.19V25.4902H140.922V23.1875H142.548ZM150.177 35.1758C148.888 35.1758 147.839 34.7539 147.03 33.9102C146.222 33.0605 145.817 31.9268 145.817 30.5088V30.21C145.817 29.2666 145.996 28.4258 146.354 27.6875C146.717 26.9434 147.221 26.3633 147.865 25.9473C148.516 25.5254 149.219 25.3145 149.975 25.3145C151.211 25.3145 152.172 25.7217 152.857 26.5361C153.543 27.3506 153.886 28.5166 153.886 30.0342V30.7109H147.443C147.467 31.6484 147.739 32.4072 148.261 32.9873C148.788 33.5615 149.456 33.8486 150.265 33.8486C150.839 33.8486 151.325 33.7314 151.724 33.4971C152.122 33.2627 152.471 32.9521 152.77 32.5654L153.763 33.3389C152.966 34.5635 151.771 35.1758 150.177 35.1758ZM149.975 26.6504C149.318 26.6504 148.768 26.8906 148.322 27.3711C147.877 27.8457 147.602 28.5137 147.496 29.375H152.26V29.252C152.213 28.4258 151.99 27.7871 151.592 27.3359C151.193 26.8789 150.654 26.6504 149.975 26.6504ZM155.389 30.166C155.389 28.6836 155.731 27.5059 156.417 26.6328C157.103 25.7539 158.011 25.3145 159.142 25.3145C160.302 25.3145 161.207 25.7246 161.857 26.5449L161.937 25.4902H163.422V34.7715C163.422 36.002 163.056 36.9717 162.323 37.6807C161.597 38.3896 160.618 38.7441 159.388 38.7441C158.702 38.7441 158.031 38.5977 157.375 38.3047C156.719 38.0117 156.218 37.6104 155.872 37.1006L156.716 36.125C157.413 36.9863 158.266 37.417 159.273 37.417C160.064 37.417 160.68 37.1943 161.119 36.749C161.564 36.3037 161.787 35.6768 161.787 34.8682V34.0508C161.137 34.8008 160.249 35.1758 159.124 35.1758C158.011 35.1758 157.108 34.7275 156.417 33.8311C155.731 32.9346 155.389 31.7129 155.389 30.166ZM157.023 30.3506C157.023 31.4229 157.243 32.2666 157.683 32.8818C158.122 33.4912 158.737 33.7959 159.528 33.7959C160.554 33.7959 161.307 33.3301 161.787 32.3984V28.0566C161.289 27.1484 160.542 26.6943 159.546 26.6943C158.755 26.6943 158.137 27.002 157.691 27.6172C157.246 28.2324 157.023 29.1436 157.023 30.3506ZM170.479 26.9492C170.233 26.9082 169.967 26.8877 169.68 26.8877C168.613 26.8877 167.89 27.3418 167.509 28.25V35H165.883V25.4902H167.465L167.491 26.5889C168.024 25.7393 168.78 25.3145 169.759 25.3145C170.075 25.3145 170.315 25.3555 170.479 25.4375V26.9492ZM177.502 35C177.408 34.8125 177.332 34.4785 177.273 33.998C176.518 34.7832 175.615 35.1758 174.566 35.1758C173.629 35.1758 172.858 34.9121 172.255 34.3848C171.657 33.8516 171.358 33.1777 171.358 32.3633C171.358 31.373 171.733 30.6055 172.483 30.0605C173.239 29.5098 174.3 29.2344 175.665 29.2344H177.247V28.4873C177.247 27.9189 177.077 27.4678 176.737 27.1338C176.397 26.7939 175.896 26.624 175.234 26.624C174.654 26.624 174.168 26.7705 173.775 27.0635C173.383 27.3564 173.187 27.7109 173.187 28.127H171.552C171.552 27.6523 171.719 27.1953 172.053 26.7559C172.393 26.3105 172.85 25.959 173.424 25.7012C174.004 25.4434 174.64 25.3145 175.331 25.3145C176.427 25.3145 177.285 25.5898 177.906 26.1406C178.527 26.6855 178.85 27.4385 178.873 28.3994V32.7764C178.873 33.6494 178.984 34.3438 179.207 34.8594V35H177.502ZM174.804 33.7607C175.313 33.7607 175.797 33.6289 176.254 33.3652C176.711 33.1016 177.042 32.7588 177.247 32.3369V30.3857H175.973C173.98 30.3857 172.984 30.9688 172.984 32.1348C172.984 32.6445 173.154 33.043 173.494 33.3301C173.834 33.6172 174.271 33.7607 174.804 33.7607ZM183.628 23.1875V25.4902H185.403V26.7471H183.628V32.6445C183.628 33.0254 183.707 33.3125 183.865 33.5059C184.023 33.6934 184.293 33.7871 184.674 33.7871C184.861 33.7871 185.119 33.752 185.447 33.6816V35C185.02 35.1172 184.604 35.1758 184.199 35.1758C183.473 35.1758 182.925 34.9561 182.556 34.5166C182.187 34.0771 182.002 33.4531 182.002 32.6445V26.7471H180.271V25.4902H182.002V23.1875H183.628ZM189.077 35H187.451V25.4902H189.077V35ZM187.319 22.9678C187.319 22.7041 187.398 22.4814 187.557 22.2998C187.721 22.1182 187.961 22.0273 188.277 22.0273C188.594 22.0273 188.834 22.1182 188.998 22.2998C189.162 22.4814 189.244 22.7041 189.244 22.9678C189.244 23.2314 189.162 23.4512 188.998 23.627C188.834 23.8027 188.594 23.8906 188.277 23.8906C187.961 23.8906 187.721 23.8027 187.557 23.627C187.398 23.4512 187.319 23.2314 187.319 22.9678ZM191.257 30.1572C191.257 29.2256 191.438 28.3877 191.802 27.6436C192.171 26.8994 192.681 26.3252 193.331 25.9209C193.987 25.5166 194.734 25.3145 195.572 25.3145C196.867 25.3145 197.913 25.7627 198.71 26.6592C199.513 27.5557 199.914 28.748 199.914 30.2363V30.3506C199.914 31.2764 199.735 32.1084 199.378 32.8467C199.026 33.5791 198.52 34.1504 197.857 34.5605C197.201 34.9707 196.445 35.1758 195.59 35.1758C194.301 35.1758 193.255 34.7275 192.452 33.8311C191.655 32.9346 191.257 31.748 191.257 30.2715V30.1572ZM192.892 30.3506C192.892 31.4053 193.135 32.252 193.621 32.8906C194.113 33.5293 194.77 33.8486 195.59 33.8486C196.416 33.8486 197.072 33.5264 197.559 32.8818C198.045 32.2314 198.288 31.3232 198.288 30.1572C198.288 29.1143 198.039 28.2705 197.541 27.626C197.049 26.9756 196.393 26.6504 195.572 26.6504C194.77 26.6504 194.122 26.9697 193.63 27.6084C193.138 28.2471 192.892 29.1611 192.892 30.3506ZM203.491 25.4902L203.544 26.6855C204.271 25.7715 205.22 25.3145 206.392 25.3145C208.401 25.3145 209.415 26.4482 209.433 28.7158V35H207.807V28.707C207.801 28.0215 207.643 27.5146 207.332 27.1865C207.027 26.8584 206.55 26.6943 205.899 26.6943C205.372 26.6943 204.909 26.835 204.511 27.1162C204.112 27.3975 203.802 27.7666 203.579 28.2236V35H201.953V25.4902H203.491ZM218.116 35H216.49V25.4902H218.116V35ZM216.358 22.9678C216.358 22.7041 216.438 22.4814 216.596 22.2998C216.76 22.1182 217 22.0273 217.316 22.0273C217.633 22.0273 217.873 22.1182 218.037 22.2998C218.201 22.4814 218.283 22.7041 218.283 22.9678C218.283 23.2314 218.201 23.4512 218.037 23.627C217.873 23.8027 217.633 23.8906 217.316 23.8906C217 23.8906 216.76 23.8027 216.596 23.627C216.438 23.4512 216.358 23.2314 216.358 22.9678ZM222.265 25.4902L222.317 26.6855C223.044 25.7715 223.993 25.3145 225.165 25.3145C227.175 25.3145 228.188 26.4482 228.206 28.7158V35H226.58V28.707C226.574 28.0215 226.416 27.5146 226.105 27.1865C225.801 26.8584 225.323 26.6943 224.673 26.6943C224.146 26.6943 223.683 26.835 223.284 27.1162C222.886 27.3975 222.575 27.7666 222.353 28.2236V35H220.727V25.4902H222.265ZM242.444 31.6602H237.083L235.879 35H234.139L239.025 22.2031H240.502L245.397 35H243.666L242.444 31.6602ZM237.593 30.2715H241.943L239.764 24.2861L237.593 30.2715ZM252.402 32.4775C252.402 32.0381 252.235 31.6982 251.901 31.458C251.573 31.2119 250.996 31.001 250.17 30.8252C249.35 30.6494 248.696 30.4385 248.21 30.1924C247.729 29.9463 247.372 29.6533 247.138 29.3135C246.909 28.9736 246.795 28.5693 246.795 28.1006C246.795 27.3213 247.123 26.6621 247.779 26.123C248.441 25.584 249.285 25.3145 250.311 25.3145C251.389 25.3145 252.262 25.5928 252.93 26.1494C253.604 26.7061 253.94 27.418 253.94 28.2852H252.306C252.306 27.8398 252.115 27.4561 251.734 27.1338C251.359 26.8115 250.885 26.6504 250.311 26.6504C249.719 26.6504 249.256 26.7793 248.922 27.0371C248.588 27.2949 248.421 27.6318 248.421 28.0479C248.421 28.4404 248.576 28.7363 248.887 28.9355C249.197 29.1348 249.757 29.3252 250.565 29.5068C251.38 29.6885 252.039 29.9053 252.543 30.1572C253.047 30.4092 253.419 30.7139 253.659 31.0713C253.905 31.4229 254.028 31.8535 254.028 32.3633C254.028 33.2129 253.688 33.8955 253.009 34.4111C252.329 34.9209 251.447 35.1758 250.363 35.1758C249.602 35.1758 248.928 35.041 248.342 34.7715C247.756 34.502 247.296 34.127 246.962 33.6465C246.634 33.1602 246.47 32.6357 246.47 32.0732H248.096C248.125 32.6182 248.342 33.0518 248.746 33.374C249.156 33.6904 249.695 33.8486 250.363 33.8486C250.979 33.8486 251.471 33.7256 251.84 33.4795C252.215 33.2275 252.402 32.8936 252.402 32.4775ZM257.913 35H256.287V25.4902H257.913V35ZM256.155 22.9678C256.155 22.7041 256.234 22.4814 256.393 22.2998C256.557 22.1182 256.797 22.0273 257.113 22.0273C257.43 22.0273 257.67 22.1182 257.834 22.2998C257.998 22.4814 258.08 22.7041 258.08 22.9678C258.08 23.2314 257.998 23.4512 257.834 23.627C257.67 23.8027 257.43 23.8906 257.113 23.8906C256.797 23.8906 256.557 23.8027 256.393 23.627C256.234 23.4512 256.155 23.2314 256.155 22.9678ZM266.395 35C266.301 34.8125 266.225 34.4785 266.166 33.998C265.41 34.7832 264.508 35.1758 263.459 35.1758C262.521 35.1758 261.751 34.9121 261.147 34.3848C260.55 33.8516 260.251 33.1777 260.251 32.3633C260.251 31.373 260.626 30.6055 261.376 30.0605C262.132 29.5098 263.192 29.2344 264.558 29.2344H266.14V28.4873C266.14 27.9189 265.97 27.4678 265.63 27.1338C265.29 26.7939 264.789 26.624 264.127 26.624C263.547 26.624 263.061 26.7705 262.668 27.0635C262.275 27.3564 262.079 27.7109 262.079 28.127H260.444C260.444 27.6523 260.611 27.1953 260.945 26.7559C261.285 26.3105 261.742 25.959 262.316 25.7012C262.896 25.4434 263.532 25.3145 264.224 25.3145C265.319 25.3145 266.178 25.5898 266.799 26.1406C267.42 26.6855 267.742 27.4385 267.766 28.3994V32.7764C267.766 33.6494 267.877 34.3438 268.1 34.8594V35H266.395ZM263.696 33.7607C264.206 33.7607 264.689 33.6289 265.146 33.3652C265.604 33.1016 265.935 32.7588 266.14 32.3369V30.3857H264.865C262.873 30.3857 261.877 30.9688 261.877 32.1348C261.877 32.6445 262.047 33.043 262.387 33.3301C262.727 33.6172 263.163 33.7607 263.696 33.7607ZM280.65 35C280.557 34.8125 280.48 34.4785 280.422 33.998C279.666 34.7832 278.764 35.1758 277.715 35.1758C276.777 35.1758 276.007 34.9121 275.403 34.3848C274.806 33.8516 274.507 33.1777 274.507 32.3633C274.507 31.373 274.882 30.6055 275.632 30.0605C276.388 29.5098 277.448 29.2344 278.813 29.2344H280.396V28.4873C280.396 27.9189 280.226 27.4678 279.886 27.1338C279.546 26.7939 279.045 26.624 278.383 26.624C277.803 26.624 277.316 26.7705 276.924 27.0635C276.531 27.3564 276.335 27.7109 276.335 28.127H274.7C274.7 27.6523 274.867 27.1953 275.201 26.7559C275.541 26.3105 275.998 25.959 276.572 25.7012C277.152 25.4434 277.788 25.3145 278.479 25.3145C279.575 25.3145 280.434 25.5898 281.055 26.1406C281.676 26.6855 281.998 27.4385 282.021 28.3994V32.7764C282.021 33.6494 282.133 34.3438 282.355 34.8594V35H280.65ZM277.952 33.7607C278.462 33.7607 278.945 33.6289 279.402 33.3652C279.859 33.1016 280.19 32.7588 280.396 32.3369V30.3857H279.121C277.129 30.3857 276.133 30.9688 276.133 32.1348C276.133 32.6445 276.303 33.043 276.643 33.3301C276.982 33.6172 277.419 33.7607 277.952 33.7607ZM286.108 25.4902L286.161 26.6855C286.888 25.7715 287.837 25.3145 289.009 25.3145C291.019 25.3145 292.032 26.4482 292.05 28.7158V35H290.424V28.707C290.418 28.0215 290.26 27.5146 289.949 27.1865C289.645 26.8584 289.167 26.6943 288.517 26.6943C287.989 26.6943 287.526 26.835 287.128 27.1162C286.729 27.3975 286.419 27.7666 286.196 28.2236V35H284.57V25.4902H286.108ZM294.106 30.166C294.106 28.707 294.452 27.5352 295.144 26.6504C295.835 25.7598 296.74 25.3145 297.859 25.3145C298.973 25.3145 299.854 25.6953 300.505 26.457V21.5H302.131V35H300.637L300.558 33.9805C299.907 34.7773 299.002 35.1758 297.842 35.1758C296.74 35.1758 295.841 34.7246 295.144 33.8223C294.452 32.9199 294.106 31.7422 294.106 30.2891V30.166ZM295.732 30.3506C295.732 31.4287 295.955 32.2725 296.4 32.8818C296.846 33.4912 297.461 33.7959 298.246 33.7959C299.277 33.7959 300.03 33.333 300.505 32.4072V28.0391C300.019 27.1426 299.271 26.6943 298.264 26.6943C297.467 26.6943 296.846 27.002 296.4 27.6172C295.955 28.2324 295.732 29.1436 295.732 30.3506ZM311.333 23.1875V25.4902H313.108V26.7471H311.333V32.6445C311.333 33.0254 311.412 33.3125 311.57 33.5059C311.729 33.6934 311.998 33.7871 312.379 33.7871C312.566 33.7871 312.824 33.752 313.152 33.6816V35C312.725 35.1172 312.309 35.1758 311.904 35.1758C311.178 35.1758 310.63 34.9561 310.261 34.5166C309.892 34.0771 309.707 33.4531 309.707 32.6445V26.7471H307.976V25.4902H309.707V23.1875H311.333ZM316.642 26.6416C317.362 25.7568 318.3 25.3145 319.454 25.3145C321.464 25.3145 322.478 26.4482 322.495 28.7158V35H320.869V28.707C320.863 28.0215 320.705 27.5146 320.395 27.1865C320.09 26.8584 319.612 26.6943 318.962 26.6943C318.435 26.6943 317.972 26.835 317.573 27.1162C317.175 27.3975 316.864 27.7666 316.642 28.2236V35H315.016V21.5H316.642V26.6416ZM328.876 35.1758C327.587 35.1758 326.538 34.7539 325.729 33.9102C324.921 33.0605 324.517 31.9268 324.517 30.5088V30.21C324.517 29.2666 324.695 28.4258 325.053 27.6875C325.416 26.9434 325.92 26.3633 326.564 25.9473C327.215 25.5254 327.918 25.3145 328.674 25.3145C329.91 25.3145 330.871 25.7217 331.557 26.5361C332.242 27.3506 332.585 28.5166 332.585 30.0342V30.7109H326.143C326.166 31.6484 326.438 32.4072 326.96 32.9873C327.487 33.5615 328.155 33.8486 328.964 33.8486C329.538 33.8486 330.024 33.7314 330.423 33.4971C330.821 33.2627 331.17 32.9521 331.469 32.5654L332.462 33.3389C331.665 34.5635 330.47 35.1758 328.876 35.1758ZM328.674 26.6504C328.018 26.6504 327.467 26.8906 327.021 27.3711C326.576 27.8457 326.301 28.5137 326.195 29.375H330.959V29.252C330.912 28.4258 330.689 27.7871 330.291 27.3359C329.893 26.8789 329.354 26.6504 328.674 26.6504ZM340.882 29.9902V35H339.194V22.2031H343.914C345.314 22.2031 346.41 22.5605 347.201 23.2754C347.998 23.9902 348.396 24.9365 348.396 26.1143C348.396 27.3564 348.007 28.3145 347.228 28.9883C346.454 29.6562 345.344 29.9902 343.896 29.9902H340.882ZM340.882 28.6104H343.914C344.816 28.6104 345.508 28.3994 345.988 27.9775C346.469 27.5498 346.709 26.9346 346.709 26.1318C346.709 25.3701 346.469 24.7607 345.988 24.3037C345.508 23.8467 344.849 23.6094 344.011 23.5918H340.882V28.6104ZM356.061 35C355.967 34.8125 355.891 34.4785 355.832 33.998C355.076 34.7832 354.174 35.1758 353.125 35.1758C352.188 35.1758 351.417 34.9121 350.813 34.3848C350.216 33.8516 349.917 33.1777 349.917 32.3633C349.917 31.373 350.292 30.6055 351.042 30.0605C351.798 29.5098 352.858 29.2344 354.224 29.2344H355.806V28.4873C355.806 27.9189 355.636 27.4678 355.296 27.1338C354.956 26.7939 354.455 26.624 353.793 26.624C353.213 26.624 352.727 26.7705 352.334 27.0635C351.941 27.3564 351.745 27.7109 351.745 28.127H350.11C350.11 27.6523 350.277 27.1953 350.611 26.7559C350.951 26.3105 351.408 25.959 351.982 25.7012C352.562 25.4434 353.198 25.3145 353.89 25.3145C354.985 25.3145 355.844 25.5898 356.465 26.1406C357.086 26.6855 357.408 27.4385 357.432 28.3994V32.7764C357.432 33.6494 357.543 34.3438 357.766 34.8594V35H356.061ZM353.362 33.7607C353.872 33.7607 354.355 33.6289 354.812 33.3652C355.27 33.1016 355.601 32.7588 355.806 32.3369V30.3857H354.531C352.539 30.3857 351.543 30.9688 351.543 32.1348C351.543 32.6445 351.713 33.043 352.053 33.3301C352.393 33.6172 352.829 33.7607 353.362 33.7607ZM363.795 33.8486C364.375 33.8486 364.882 33.6729 365.315 33.3213C365.749 32.9697 365.989 32.5303 366.036 32.0029H367.574C367.545 32.5479 367.357 33.0664 367.012 33.5586C366.666 34.0508 366.203 34.4434 365.623 34.7363C365.049 35.0293 364.439 35.1758 363.795 35.1758C362.5 35.1758 361.469 34.7451 360.701 33.8838C359.939 33.0166 359.559 31.833 359.559 30.333V30.0605C359.559 29.1348 359.729 28.3115 360.068 27.5908C360.408 26.8701 360.895 26.3105 361.527 25.9121C362.166 25.5137 362.919 25.3145 363.786 25.3145C364.853 25.3145 365.737 25.6338 366.44 26.2725C367.149 26.9111 367.527 27.7402 367.574 28.7598H366.036C365.989 28.1445 365.755 27.6406 365.333 27.248C364.917 26.8496 364.401 26.6504 363.786 26.6504C362.96 26.6504 362.318 26.9492 361.861 27.5469C361.41 28.1387 361.185 28.9971 361.185 30.1221V30.4297C361.185 31.5254 361.41 32.3691 361.861 32.9609C362.312 33.5527 362.957 33.8486 363.795 33.8486ZM371.169 35H369.543V25.4902H371.169V35ZM369.411 22.9678C369.411 22.7041 369.49 22.4814 369.648 22.2998C369.812 22.1182 370.053 22.0273 370.369 22.0273C370.686 22.0273 370.926 22.1182 371.09 22.2998C371.254 22.4814 371.336 22.7041 371.336 22.9678C371.336 23.2314 371.254 23.4512 371.09 23.627C370.926 23.8027 370.686 23.8906 370.369 23.8906C370.053 23.8906 369.812 23.8027 369.648 23.627C369.49 23.4512 369.411 23.2314 369.411 22.9678ZM374.324 35V26.7471H372.821V25.4902H374.324V24.6816C374.324 23.6211 374.626 22.7949 375.229 22.2031C375.839 21.6113 376.697 21.3154 377.805 21.3154C378.461 21.3154 379.29 21.4941 380.292 21.8516L380.02 23.2227C379.287 22.9297 378.59 22.7832 377.928 22.7832C377.23 22.7832 376.727 22.9414 376.416 23.2578C376.111 23.5684 375.959 24.0371 375.959 24.6641V25.4902H377.901V26.7471H375.959V35H374.324ZM381.101 35H379.466V25.4902H381.101V35ZM387.561 33.8486C388.141 33.8486 388.647 33.6729 389.081 33.3213C389.515 32.9697 389.755 32.5303 389.802 32.0029H391.34C391.311 32.5479 391.123 33.0664 390.777 33.5586C390.432 34.0508 389.969 34.4434 389.389 34.7363C388.814 35.0293 388.205 35.1758 387.561 35.1758C386.266 35.1758 385.234 34.7451 384.467 33.8838C383.705 33.0166 383.324 31.833 383.324 30.333V30.0605C383.324 29.1348 383.494 28.3115 383.834 27.5908C384.174 26.8701 384.66 26.3105 385.293 25.9121C385.932 25.5137 386.685 25.3145 387.552 25.3145C388.618 25.3145 389.503 25.6338 390.206 26.2725C390.915 26.9111 391.293 27.7402 391.34 28.7598H389.802C389.755 28.1445 389.521 27.6406 389.099 27.248C388.683 26.8496 388.167 26.6504 387.552 26.6504C386.726 26.6504 386.084 26.9492 385.627 27.5469C385.176 28.1387 384.95 28.9971 384.95 30.1221V30.4297C384.95 31.5254 385.176 32.3691 385.627 32.9609C386.078 33.5527 386.723 33.8486 387.561 33.8486ZM393.203 34.1475C393.203 33.8662 393.285 33.6318 393.449 33.4443C393.619 33.2568 393.871 33.1631 394.205 33.1631C394.539 33.1631 394.791 33.2568 394.961 33.4443C395.137 33.6318 395.225 33.8662 395.225 34.1475C395.225 34.417 395.137 34.6426 394.961 34.8242C394.791 35.0059 394.539 35.0967 394.205 35.0967C393.871 35.0967 393.619 35.0059 393.449 34.8242C393.285 34.6426 393.203 34.417 393.203 34.1475Z" fill="white"/>
</svg>
