<svg width="32" height="32" viewBox="0 0 32 32" fill="none" xmlns="http://www.w3.org/2000/svg">
<path d="M31.2244 26.6438C29.1253 24.5267 27.0152 22.4203 24.9001 20.3196C24.348 19.771 23.6619 19.5318 22.8788 19.5803C22.2501 19.6192 21.7125 19.8644 21.2492 20.2811C21.1843 20.3396 21.1515 20.3589 21.0806 20.2865C20.7359 19.9339 20.3845 19.5885 20.0366 19.2392C19.9268 19.129 19.9261 19.0132 20.0273 18.8945C20.1236 18.7815 20.2191 18.6681 20.3107 18.5515C21.9859 16.4241 22.8278 14.0097 22.8143 11.2977C22.8104 10.5295 22.738 9.7688 22.5737 9.02092C22.0052 6.43222 20.7213 4.26095 18.6579 2.59516C15.8531 0.330142 12.6488 -0.447679 9.11402 0.243876C6.47855 0.75969 4.30501 2.09503 2.59947 4.16364C0.870413 6.2604 0.035287 8.69297 0 11.4118C0.00998016 11.939 0.0356434 12.4726 0.112277 13.0013C0.342177 14.5897 0.863284 16.0755 1.7173 17.4376C2.94343 19.3935 4.60335 20.8608 6.70845 21.8125C8.40436 22.5797 10.1844 22.9098 12.0453 22.8064C13.0679 22.7497 14.0628 22.5594 15.033 22.235C16.5001 21.7445 17.8096 20.9809 18.9673 19.9568C19.0564 19.878 19.0999 19.8901 19.1758 19.9678C19.5287 20.3286 19.8844 20.6872 20.2476 21.0376C20.3474 21.1338 20.3406 21.1841 20.2519 21.2864C19.3141 22.3661 19.3391 23.9118 20.331 24.9106C22.4276 27.022 24.5319 29.1252 26.642 31.223C27.5959 32.1713 29.0358 32.2582 30.1119 31.4473C30.5158 31.1428 30.8437 30.7532 31.2001 30.3967C32.252 29.3434 32.273 27.7015 31.2244 26.6438ZM6.26683 20.3132C5.68869 19.9824 5.16972 19.6138 4.68319 19.1989C4.32569 18.8941 3.99634 18.5615 3.68945 18.2061C3.63171 18.1391 3.60426 18.0732 3.60426 17.9837C3.6064 15.3476 3.60676 12.7111 3.60248 10.075C3.60212 9.93919 3.64205 9.90675 3.77321 9.90782C4.55666 9.91388 5.34045 9.9121 6.12425 9.90853C6.22441 9.90818 6.26968 9.92137 6.26968 10.0408C6.26611 13.4551 6.26683 16.869 6.26683 20.3132ZM12.5479 16.6462C12.5479 18.25 12.5454 19.8537 12.5518 21.4575C12.5525 21.6176 12.5001 21.6518 12.3529 21.6628C11.6226 21.7181 10.8948 21.6963 10.1673 21.6225C9.9021 21.5958 9.90174 21.6015 9.90174 21.3388C9.90174 18.1787 9.90281 15.0189 9.89853 11.8588C9.89818 11.7023 9.92848 11.6492 10.0985 11.6517C10.8406 11.6624 11.5834 11.6617 12.3255 11.652C12.4969 11.6499 12.554 11.6809 12.5529 11.8702C12.544 13.4626 12.5479 15.0546 12.5479 16.6462ZM18.8461 18.3886C18.8461 18.466 18.8465 18.5362 18.7841 18.6007C18.0349 19.3793 17.1751 20.0081 16.1999 20.5317C16.1999 20.3988 16.1999 20.2979 16.1999 20.1974C16.1999 15.9867 16.201 11.7757 16.196 7.56509C16.1957 7.38543 16.2327 7.32911 16.4234 7.33231C17.1773 7.34479 17.9319 7.34158 18.6857 7.33374C18.824 7.33231 18.849 7.37331 18.849 7.50235C18.845 11.1309 18.8457 14.7598 18.8461 18.3886ZM19.765 6.22012C18.2566 6.2269 16.7481 6.22654 15.2397 6.22083C15.0961 6.22012 15.0679 6.26219 15.0683 6.39764C15.0718 11.2086 15.0704 16.0192 15.0747 20.8301C15.0747 20.9848 15.0369 21.0525 14.8822 21.1017C14.4891 21.2272 14.0963 21.3513 13.6785 21.4443C13.6785 21.3627 13.6785 21.2921 13.6785 21.2215C13.6785 17.7231 13.6775 14.225 13.6828 10.7266C13.6832 10.5673 13.6425 10.5359 13.4896 10.5366C11.9812 10.5431 10.4728 10.5427 8.96432 10.5366C8.81676 10.5359 8.78076 10.5701 8.78111 10.7191C8.7861 14.1937 8.78504 17.6682 8.78504 21.1424C8.78504 21.358 8.78397 21.3609 8.57795 21.2996C8.23292 21.1976 7.89324 21.08 7.55605 20.9531C7.42559 20.9039 7.37855 20.8458 7.37855 20.7004C7.38354 16.7981 7.38104 12.8961 7.3871 8.99383C7.38746 8.81809 7.34183 8.78458 7.17431 8.78529C5.67194 8.79242 4.16957 8.79206 2.66684 8.78565C2.51714 8.78493 2.48506 8.82308 2.48542 8.96923C2.49041 11.3747 2.48898 13.7802 2.48898 16.1856C2.48898 16.2748 2.48898 16.3635 2.48898 16.4929C0.307959 12.756 0.610572 7.31485 4.49072 3.80574C8.46923 0.207872 14.3536 0.209298 18.335 3.7979C22.2183 7.29845 22.7159 13.0202 19.9853 17.1011C19.9436 17.0326 19.9625 16.9627 19.9625 16.8986C19.9614 13.4062 19.9603 9.91388 19.9653 6.42153C19.966 6.2604 19.9275 6.21941 19.765 6.22012ZM30.4081 29.6011C30.1458 29.8677 29.8806 30.1319 29.6147 30.395C28.9792 31.0234 28.0528 31.042 27.4198 30.4121C25.3232 28.3264 23.2324 26.2349 21.1469 24.1382C20.521 23.509 20.5402 22.5854 21.1636 21.9566C21.4228 21.6953 21.6837 21.4354 21.9446 21.1755C22.5976 20.5253 23.5168 20.5239 24.1766 21.1802C25.1407 22.1391 26.1003 23.1026 27.0619 24.0644C28.1661 25.1687 29.27 26.2738 30.375 27.3778C30.6911 27.6936 30.8733 28.0647 30.8658 28.4868C30.8665 28.9448 30.7029 29.3017 30.4081 29.6011Z" fill="#0B193F"/>
</svg>
