<svg width="32" height="26" viewBox="0 0 32 26" fill="none" xmlns="http://www.w3.org/2000/svg">
<path d="M31.1303 2.3122C31.1391 0.746798 30.3932 -0.0166303 28.8028 0.000274642C24.396 0.0482848 19.9885 0.0171796 15.5818 0.0171796C11.0397 0.0171796 6.4977 0.0158272 1.95568 0.0178558C0.718231 0.018532 0.00146059 0.728541 0.00146059 1.95922C-0.000568007 9.20199 0.000108192 16.4454 0.000108192 23.6882C0.000108192 23.9364 0.0116036 24.1825 0.0866616 24.4219C0.33956 25.2306 1.00223 25.6627 1.99016 25.6627C8.71293 25.6627 15.4364 25.6627 22.1591 25.6627C24.5089 25.6627 26.8587 25.6654 29.2085 25.66C30.1342 25.658 30.7983 25.1934 31.0329 24.4043C31.1276 24.0865 31.114 23.7585 31.114 23.4326C31.114 16.3927 31.0917 9.35278 31.1303 2.3122ZM29.1483 24.2582C24.607 24.2582 20.065 24.2582 15.5236 24.2582C11.0154 24.2582 6.50784 24.2582 1.99963 24.2582C1.48098 24.2582 1.39578 24.1723 1.39578 23.6537C1.39578 16.4677 1.39578 9.2811 1.39578 2.09514C1.39578 1.4798 1.45326 1.42164 2.06657 1.42164C11.0938 1.42097 20.1211 1.42097 29.1477 1.42164C29.619 1.42164 29.717 1.51834 29.717 1.99303C29.7177 9.2358 29.7177 16.4779 29.717 23.7207C29.7177 24.1582 29.6102 24.2582 29.1483 24.2582Z" fill="#0B193F"/>
<path d="M12.119 17.7931C15.2681 16.1398 18.3867 14.5027 21.5547 12.8399C18.3772 11.1724 15.2627 9.53805 12.119 7.88812C12.119 11.2028 12.119 14.4784 12.119 17.7931ZM13.5106 10.1994C15.1788 11.0744 16.8321 11.9419 18.5436 12.8399C16.8369 13.7359 15.1896 14.6007 13.5106 15.4818C13.5106 13.7122 13.5106 11.9791 13.5106 10.1994Z" fill="#0B193F"/>
<path d="M2.65076 6.62296C2.97601 6.6135 3.30194 6.62026 3.62787 6.62026C3.96461 6.62026 4.30204 6.61552 4.63878 6.62296C4.78484 6.62634 4.86666 6.60335 4.8599 6.42619C4.84705 6.08876 4.8484 5.75067 4.85855 5.41392C4.86328 5.24757 4.79904 5.20565 4.64149 5.207C3.97881 5.21444 3.31614 5.21376 2.65346 5.20768C2.4905 5.20633 2.40462 5.23608 2.41206 5.42677C2.42491 5.75269 2.42559 6.07997 2.41138 6.40523C2.40259 6.59727 2.4878 6.6277 2.65076 6.62296Z" fill="#0B193F"/>
<path d="M28.7021 5.44165C28.7082 5.2699 28.6588 5.20363 28.4756 5.20633C27.8129 5.2158 27.1502 5.21445 26.4875 5.20566C26.3144 5.20363 26.2475 5.25096 26.2542 5.43151C26.2664 5.74594 26.2691 6.06173 26.2549 6.37683C26.2468 6.56347 26.2948 6.63447 26.4936 6.62432C26.8182 6.60742 27.1448 6.61959 27.4707 6.61959C27.7967 6.61959 28.1226 6.6108 28.4478 6.62297C28.6284 6.62973 28.7129 6.59119 28.7021 6.3863C28.6865 6.07255 28.6913 5.75676 28.7021 5.44165Z" fill="#0B193F"/>
<path d="M2.60749 9.392C2.95506 9.38456 3.3033 9.3893 3.65087 9.38997C3.98761 9.38997 4.32436 9.38524 4.66043 9.39268C4.80108 9.39606 4.86262 9.35752 4.85923 9.20537C4.85044 8.85713 4.85315 8.50821 4.85653 8.15997C4.85788 8.03622 4.82204 7.97807 4.68478 7.97875C3.98897 7.98416 3.29383 7.98483 2.59803 7.97875C2.4398 7.97739 2.41275 8.05313 2.41478 8.18566C2.41951 8.52309 2.42154 8.85983 2.41342 9.19726C2.40937 9.34467 2.46211 9.39471 2.60749 9.392Z" fill="#0B193F"/>
<path d="M28.4688 7.97807C28.1435 7.98889 27.8183 7.98145 27.493 7.98077C27.1563 7.9801 26.8195 7.98956 26.4835 7.97671C26.3043 7.96995 26.2495 8.03284 26.2556 8.2073C26.2671 8.53323 26.2671 8.85915 26.2563 9.18508C26.2508 9.35007 26.309 9.39403 26.4686 9.39267C27.1414 9.38524 27.8149 9.38524 28.4877 9.392C28.6466 9.39335 28.7068 9.34737 28.7014 9.18305C28.6912 8.85713 28.6906 8.53052 28.7027 8.20527C28.7095 8.02405 28.6412 7.97266 28.4688 7.97807Z" fill="#0B193F"/>
<path d="M4.8546 10.9398C4.87083 10.7951 4.80862 10.7437 4.66256 10.7471C4.32649 10.7559 3.98974 10.7498 3.65299 10.7498C3.30543 10.7498 2.95718 10.7545 2.60962 10.7478C2.46559 10.7451 2.41014 10.7931 2.41352 10.9412C2.42096 11.2779 2.42231 11.6153 2.41285 11.9528C2.40811 12.1178 2.471 12.1658 2.62855 12.1617C2.99843 12.1529 3.36899 12.1691 3.73887 12.1556C4.10469 12.1421 4.61861 12.3233 4.79712 12.0867C4.9824 11.8412 4.84919 11.3543 4.8546 10.973C4.85527 10.9621 4.85392 10.9506 4.8546 10.9398Z" fill="#0B193F"/>
<path d="M26.4902 12.1624C26.8154 12.1509 27.1407 12.159 27.4659 12.159C27.8027 12.159 28.1394 12.1543 28.4755 12.161C28.6222 12.1644 28.7068 12.1394 28.7007 11.9622C28.6899 11.6255 28.6905 11.2874 28.7014 10.9506C28.7068 10.7782 28.6304 10.7464 28.4796 10.7478C27.8061 10.7532 27.1333 10.7552 26.4598 10.7464C26.2894 10.7444 26.2515 10.8107 26.2556 10.9635C26.2637 11.2894 26.2677 11.616 26.2542 11.9413C26.2474 12.1279 26.3225 12.1678 26.4902 12.1624Z" fill="#0B193F"/>
<path d="M4.85924 13.7548C4.86938 13.552 4.78688 13.5148 4.60499 13.5175C3.95448 13.5269 3.30398 13.5256 2.65348 13.5188C2.49186 13.5175 2.40464 13.5452 2.41207 13.7366C2.4256 14.0618 2.42492 14.3884 2.41207 14.7143C2.40464 14.9044 2.48916 14.9382 2.65212 14.9334C2.97738 14.924 3.30263 14.9307 3.62788 14.9307C3.95313 14.9307 4.27906 14.9226 4.60363 14.9341C4.78215 14.9409 4.87073 14.9037 4.86059 14.6988C4.84436 14.3844 4.84368 14.0686 4.85924 13.7548Z" fill="#0B193F"/>
<path d="M28.4748 13.5182C28.1495 13.5303 27.8243 13.5215 27.499 13.5215C27.1623 13.5215 26.8255 13.5297 26.4895 13.5182C26.3184 13.5121 26.2494 13.5581 26.2562 13.7413C26.269 14.0666 26.2657 14.3932 26.2562 14.7191C26.2515 14.8753 26.2954 14.9361 26.4631 14.9341C27.1359 14.9253 27.8094 14.924 28.4829 14.9348C28.6736 14.9375 28.7067 14.8584 28.702 14.6947C28.6932 14.3803 28.6912 14.0652 28.7034 13.7508C28.7088 13.5743 28.654 13.5114 28.4748 13.5182Z" fill="#0B193F"/>
<path d="M4.60231 16.2872C4.28855 16.2987 3.97412 16.2906 3.66036 16.2906C3.32362 16.2906 2.98754 16.2973 2.6508 16.2879C2.48783 16.2831 2.40331 16.3149 2.41142 16.5056C2.42495 16.8309 2.42089 17.1575 2.41278 17.4827C2.40872 17.6376 2.45335 17.7032 2.61969 17.7011C3.29251 17.6937 3.96533 17.6917 4.63815 17.7025C4.82883 17.7059 4.86197 17.6247 4.85723 17.4624C4.84844 17.148 4.84168 16.8329 4.85791 16.5191C4.87008 16.3115 4.77879 16.2804 4.60231 16.2872Z" fill="#0B193F"/>
<path d="M26.4537 17.7011C26.8013 17.6937 27.1495 17.6984 27.4971 17.6991C27.8223 17.6991 28.1482 17.6903 28.4735 17.7025C28.6527 17.7093 28.7081 17.6457 28.7021 17.4706C28.6906 17.1561 28.6919 16.841 28.7021 16.5266C28.7075 16.3629 28.675 16.2838 28.4843 16.2872C27.8115 16.298 27.138 16.2933 26.4645 16.2892C26.3354 16.2886 26.2522 16.3007 26.2569 16.4657C26.2664 16.814 26.263 17.1629 26.2562 17.5111C26.2529 17.6579 26.3103 17.7045 26.4537 17.7011Z" fill="#0B193F"/>
<path d="M4.85795 19.2685C4.86268 19.1103 4.82076 19.0535 4.65238 19.0562C3.97889 19.0657 3.3054 19.067 2.6319 19.0562C2.44189 19.0535 2.40808 19.1299 2.41349 19.2949C2.42363 19.6093 2.42431 19.9251 2.41349 20.2396C2.4074 20.412 2.45744 20.481 2.64002 20.4742C2.97609 20.4614 3.31351 20.4708 3.65026 20.4708C3.97551 20.4708 4.30144 20.462 4.62669 20.4742C4.80115 20.481 4.86539 20.4255 4.8593 20.247C4.84713 19.9211 4.84781 19.5945 4.85795 19.2685Z" fill="#0B193F"/>
<path d="M26.4813 20.4735C26.8181 20.4607 27.1548 20.4695 27.4923 20.4702C27.8297 20.4708 28.1664 20.4654 28.5032 20.4729C28.6459 20.4756 28.7054 20.4296 28.702 20.2801C28.6945 19.9427 28.6925 19.6046 28.7027 19.2672C28.7081 19.1042 28.6526 19.0549 28.4917 19.0569C27.8182 19.0643 27.144 19.0643 26.4699 19.0569C26.313 19.0549 26.2508 19.0941 26.2569 19.2618C26.2677 19.5877 26.2663 19.9143 26.2555 20.2409C26.2494 20.4113 26.2981 20.481 26.4813 20.4735Z" fill="#0B193F"/>
<path d="M2.62782 3.85191C3.30064 3.84515 3.97413 3.84515 4.64695 3.85259C4.80451 3.85462 4.86536 3.81404 4.85928 3.64702C4.84778 3.32177 4.84778 2.99517 4.8586 2.66924C4.86469 2.49546 4.80991 2.43122 4.63005 2.43798C4.30547 2.45083 3.97954 2.44136 3.65429 2.44136C3.31754 2.44136 2.9808 2.4488 2.64473 2.43866C2.47094 2.43325 2.40535 2.48734 2.41211 2.66789C2.42429 2.99314 2.42293 3.31974 2.41144 3.64567C2.40603 3.81404 2.4723 3.85326 2.62782 3.85191Z" fill="#0B193F"/>
<path d="M26.2596 3.6619C26.2406 3.80863 26.3042 3.85597 26.4496 3.85191C26.7857 3.84312 27.1224 3.84921 27.4592 3.84921C27.8067 3.84921 28.1543 3.84447 28.5019 3.85124C28.6405 3.85394 28.7054 3.8181 28.7013 3.66393C28.6925 3.32718 28.6932 2.98976 28.702 2.65301C28.7061 2.4914 28.6479 2.43595 28.4883 2.44001C28.1185 2.44812 27.7479 2.43122 27.378 2.44542C27.0122 2.45962 26.5118 2.27772 26.3191 2.51642C26.1358 2.74295 26.267 3.22508 26.2603 3.59496C26.2589 3.61727 26.2623 3.63958 26.2596 3.6619Z" fill="#0B193F"/>
<path d="M4.85792 22.0349C4.86333 21.8706 4.80721 21.8259 4.64763 21.828C3.97481 21.8361 3.30199 21.8354 2.62917 21.8287C2.475 21.8273 2.4067 21.8631 2.41211 22.0335C2.42361 22.3588 2.42361 22.6854 2.41211 23.0106C2.40535 23.1885 2.46756 23.2473 2.64337 23.2419C2.97944 23.2311 3.31619 23.2385 3.65226 23.2385C3.97751 23.2385 4.30277 23.2297 4.62734 23.2419C4.80518 23.2487 4.86333 23.1871 4.85792 23.012C4.84778 22.6867 4.84711 22.3601 4.85792 22.0349Z" fill="#0B193F"/>
<path d="M28.462 21.8287C28.1368 21.8374 27.8115 21.8314 27.4863 21.8314C27.1495 21.8314 26.8128 21.8368 26.4767 21.8287C26.33 21.8253 26.2502 21.8483 26.2563 22.0254C26.2684 22.3622 26.2651 22.6996 26.2556 23.037C26.2509 23.2061 26.3239 23.2426 26.4767 23.2412C27.1387 23.2351 27.8007 23.2351 28.462 23.2419C28.6257 23.2433 28.7102 23.2101 28.7028 23.0208C28.6892 22.6955 28.6879 22.3683 28.7028 22.043C28.7115 21.8476 28.6209 21.8246 28.462 21.8287Z" fill="#0B193F"/>
</svg>
