<svg width="38" height="32" viewBox="0 0 38 32" fill="none" xmlns="http://www.w3.org/2000/svg">
<path d="M31.1303 8.64884C31.1391 7.08344 30.3932 6.32001 28.8028 6.33691C24.396 6.38492 19.9885 6.35382 15.5818 6.35382C11.0397 6.35382 6.4977 6.35247 1.95568 6.3545C0.718231 6.35517 0.00146059 7.06518 0.00146059 8.29586C-0.000568007 15.5386 0.000108192 22.7821 0.000108192 30.0248C0.000108192 30.273 0.0116036 30.5191 0.0866616 30.7585C0.33956 31.5672 1.00223 31.9993 1.99016 31.9993C8.71293 31.9993 15.4364 31.9993 22.1591 31.9993C24.5089 31.9993 26.8587 32.002 29.2085 31.9966C30.1342 31.9946 30.7983 31.5301 31.0329 30.7409C31.1276 30.4231 31.114 30.0952 31.114 29.7692C31.114 22.7293 31.0917 15.6894 31.1303 8.64884ZM29.1483 30.5949C24.607 30.5949 20.065 30.5949 15.5236 30.5949C11.0154 30.5949 6.50784 30.5949 1.99963 30.5949C1.48098 30.5949 1.39578 30.509 1.39578 29.9903C1.39578 22.8044 1.39578 15.6177 1.39578 8.43178C1.39578 7.81644 1.45326 7.75828 2.06657 7.75828C11.0938 7.75761 20.1211 7.75761 29.1477 7.75828C29.619 7.75828 29.717 7.85498 29.717 8.32967C29.7177 15.5724 29.7177 22.8145 29.717 30.0573C29.7177 30.4948 29.6102 30.5949 29.1483 30.5949Z" fill="#0B193F"/>
<path d="M12.119 24.1297C15.2681 22.4764 18.3867 20.8393 21.5547 19.1766C18.3772 17.5091 15.2627 15.8747 12.119 14.2248C12.119 17.5395 12.119 20.815 12.119 24.1297ZM13.5106 16.536C15.1788 17.411 16.8321 18.2786 18.5436 19.1766C16.8369 20.0725 15.1896 20.9374 13.5106 21.8185C13.5106 20.0489 13.5106 18.3158 13.5106 16.536Z" fill="#0B193F"/>
<path d="M2.65076 12.9596C2.97601 12.9501 3.30194 12.9569 3.62787 12.9569C3.96461 12.9569 4.30204 12.9522 4.63878 12.9596C4.78484 12.963 4.86666 12.94 4.8599 12.7628C4.84705 12.4254 4.8484 12.0873 4.85855 11.7506C4.86328 11.5842 4.79904 11.5423 4.64149 11.5436C3.97881 11.5511 3.31614 11.5504 2.65346 11.5443C2.4905 11.543 2.40462 11.5727 2.41206 11.7634C2.42491 12.0893 2.42559 12.4166 2.41138 12.7419C2.40259 12.9339 2.4878 12.9643 2.65076 12.9596Z" fill="#0B193F"/>
<path d="M28.7021 11.7783C28.7082 11.6065 28.6588 11.5403 28.4756 11.543C27.8129 11.5524 27.1502 11.5511 26.4875 11.5423C26.3144 11.5403 26.2475 11.5876 26.2542 11.7681C26.2664 12.0826 26.2691 12.3984 26.2549 12.7135C26.2468 12.9001 26.2948 12.9711 26.4936 12.961C26.8182 12.9441 27.1448 12.9562 27.4707 12.9562C27.7967 12.9562 28.1226 12.9474 28.4478 12.9596C28.6284 12.9664 28.7129 12.9278 28.7021 12.7229C28.6865 12.4092 28.6913 12.0934 28.7021 11.7783Z" fill="#0B193F"/>
<path d="M2.60749 15.7286C2.95506 15.7212 3.3033 15.7259 3.65087 15.7266C3.98761 15.7266 4.32436 15.7219 4.66043 15.7293C4.80108 15.7327 4.86262 15.6942 4.85923 15.542C4.85044 15.1938 4.85315 14.8449 4.85653 14.4966C4.85788 14.3729 4.82204 14.3147 4.68478 14.3154C3.98897 14.3208 3.29383 14.3215 2.59803 14.3154C2.4398 14.314 2.41275 14.3898 2.41478 14.5223C2.41951 14.8597 2.42154 15.1965 2.41342 15.5339C2.40937 15.6813 2.46211 15.7313 2.60749 15.7286Z" fill="#0B193F"/>
<path d="M28.4688 14.3147C28.1435 14.3255 27.8183 14.3181 27.493 14.3174C27.1563 14.3167 26.8195 14.3262 26.4835 14.3134C26.3043 14.3066 26.2495 14.3695 26.2556 14.5439C26.2671 14.8699 26.2671 15.1958 26.2563 15.5217C26.2508 15.6867 26.309 15.7307 26.4686 15.7293C27.1414 15.7219 27.8149 15.7219 28.4877 15.7286C28.6466 15.73 28.7068 15.684 28.7014 15.5197C28.6912 15.1938 28.6906 14.8672 28.7027 14.5419C28.7095 14.3607 28.6412 14.3093 28.4688 14.3147Z" fill="#0B193F"/>
<path d="M4.8546 17.2765C4.87083 17.1318 4.80862 17.0804 4.66256 17.0837C4.32649 17.0925 3.98974 17.0864 3.65299 17.0864C3.30543 17.0864 2.95718 17.0912 2.60962 17.0844C2.46559 17.0817 2.41014 17.1297 2.41352 17.2778C2.42096 17.6146 2.42231 17.952 2.41285 18.2894C2.40811 18.4544 2.471 18.5024 2.62855 18.4984C2.99843 18.4896 3.36899 18.5058 3.73887 18.4923C4.10469 18.4787 4.61861 18.66 4.79712 18.4233C4.9824 18.1778 4.84919 17.691 4.8546 17.3096C4.85527 17.2988 4.85392 17.2873 4.8546 17.2765Z" fill="#0B193F"/>
<path d="M26.4902 18.499C26.8154 18.4875 27.1407 18.4956 27.4659 18.4956C27.8027 18.4956 28.1394 18.4909 28.4755 18.4977C28.6222 18.501 28.7068 18.476 28.7007 18.2989C28.6899 17.9621 28.6905 17.624 28.7014 17.2873C28.7068 17.1148 28.6304 17.0831 28.4796 17.0844C27.8061 17.0898 27.1333 17.0918 26.4598 17.0831C26.2894 17.081 26.2515 17.1473 26.2556 17.3001C26.2637 17.626 26.2677 17.9526 26.2542 18.2779C26.2474 18.4645 26.3225 18.5044 26.4902 18.499Z" fill="#0B193F"/>
<path d="M4.85924 20.0915C4.86938 19.8886 4.78688 19.8514 4.60499 19.8541C3.95448 19.8636 3.30398 19.8622 2.65348 19.8555C2.49186 19.8541 2.40464 19.8818 2.41207 20.0732C2.4256 20.3984 2.42492 20.7251 2.41207 21.051C2.40464 21.241 2.48916 21.2748 2.65212 21.2701C2.97738 21.2606 3.30263 21.2674 3.62788 21.2674C3.95313 21.2674 4.27906 21.2592 4.60363 21.2707C4.78215 21.2775 4.87073 21.2403 4.86059 21.0354C4.84436 20.721 4.84368 20.4052 4.85924 20.0915Z" fill="#0B193F"/>
<path d="M28.4748 19.8548C28.1495 19.867 27.8243 19.8582 27.499 19.8582C27.1623 19.8582 26.8255 19.8663 26.4895 19.8548C26.3184 19.8487 26.2494 19.8947 26.2562 20.0779C26.269 20.4032 26.2657 20.7298 26.2562 21.0557C26.2515 21.2119 26.2954 21.2728 26.4631 21.2708C27.1359 21.262 27.8094 21.2606 28.4829 21.2714C28.6736 21.2741 28.7067 21.195 28.702 21.0314C28.6932 20.7169 28.6912 20.4018 28.7034 20.0874C28.7088 19.9109 28.654 19.848 28.4748 19.8548Z" fill="#0B193F"/>
<path d="M4.60231 22.6238C4.28855 22.6353 3.97412 22.6272 3.66036 22.6272C3.32362 22.6272 2.98754 22.634 2.6508 22.6245C2.48783 22.6198 2.40331 22.6516 2.41142 22.8423C2.42495 23.1675 2.42089 23.4941 2.41278 23.8194C2.40872 23.9742 2.45335 24.0398 2.61969 24.0378C3.29251 24.0303 3.96533 24.0283 4.63815 24.0391C4.82883 24.0425 4.86197 23.9614 4.85723 23.7991C4.84844 23.4846 4.84168 23.1695 4.85791 22.8558C4.87008 22.6482 4.77879 22.6171 4.60231 22.6238Z" fill="#0B193F"/>
<path d="M26.4537 24.0378C26.8013 24.0303 27.1495 24.035 27.4971 24.0357C27.8223 24.0357 28.1482 24.0269 28.4735 24.0391C28.6527 24.0459 28.7081 23.9823 28.7021 23.8072C28.6906 23.4927 28.6919 23.1776 28.7021 22.8632C28.7075 22.6996 28.675 22.6204 28.4843 22.6238C27.8115 22.6346 27.138 22.6299 26.4645 22.6259C26.3354 22.6252 26.2522 22.6373 26.2569 22.8023C26.2664 23.1506 26.263 23.4995 26.2562 23.8477C26.2529 23.9945 26.3103 24.0411 26.4537 24.0378Z" fill="#0B193F"/>
<path d="M4.85795 25.6052C4.86268 25.4469 4.82076 25.3901 4.65238 25.3929C3.97889 25.4023 3.3054 25.4037 2.6319 25.3929C2.44189 25.3901 2.40808 25.4666 2.41349 25.6316C2.42363 25.946 2.42431 26.2618 2.41349 26.5762C2.4074 26.7486 2.45744 26.8176 2.64002 26.8108C2.97609 26.798 3.31351 26.8075 3.65026 26.8075C3.97551 26.8075 4.30144 26.7987 4.62669 26.8108C4.80115 26.8176 4.86539 26.7622 4.8593 26.5836C4.84713 26.2577 4.84781 25.9311 4.85795 25.6052Z" fill="#0B193F"/>
<path d="M26.4813 26.8102C26.8181 26.7973 27.1548 26.8061 27.4923 26.8068C27.8297 26.8075 28.1664 26.8021 28.5032 26.8095C28.6459 26.8122 28.7054 26.7662 28.702 26.6168C28.6945 26.2794 28.6925 25.9413 28.7027 25.6038C28.7081 25.4409 28.6526 25.3915 28.4917 25.3935C27.8182 25.401 27.144 25.401 26.4699 25.3935C26.313 25.3915 26.2508 25.4307 26.2569 25.5984C26.2677 25.9244 26.2663 26.251 26.2555 26.5776C26.2494 26.748 26.2981 26.8176 26.4813 26.8102Z" fill="#0B193F"/>
<path d="M2.62782 10.1885C3.30064 10.1818 3.97413 10.1818 4.64695 10.1892C4.80451 10.1913 4.86536 10.1507 4.85928 9.98366C4.84778 9.65841 4.84778 9.33181 4.8586 9.00588C4.86469 8.8321 4.80991 8.76786 4.63005 8.77462C4.30547 8.78747 3.97954 8.778 3.65429 8.778C3.31754 8.778 2.9808 8.78544 2.64473 8.77529C2.47094 8.76989 2.40535 8.82398 2.41211 9.00453C2.42429 9.32978 2.42293 9.65638 2.41144 9.98231C2.40603 10.1507 2.4723 10.1899 2.62782 10.1885Z" fill="#0B193F"/>
<path d="M26.2596 9.99854C26.2406 10.1453 26.3042 10.1926 26.4496 10.1886C26.7857 10.1798 27.1224 10.1858 27.4592 10.1858C27.8067 10.1858 28.1543 10.1811 28.5019 10.1879C28.6405 10.1906 28.7054 10.1547 28.7013 10.0006C28.6925 9.66382 28.6932 9.3264 28.702 8.98965C28.7061 8.82804 28.6479 8.77259 28.4883 8.77665C28.1185 8.78476 27.7479 8.76786 27.378 8.78206C27.0122 8.79626 26.5118 8.61436 26.3191 8.85306C26.1358 9.07958 26.267 9.56171 26.2603 9.9316C26.2589 9.95391 26.2623 9.97622 26.2596 9.99854Z" fill="#0B193F"/>
<path d="M4.85792 28.3715C4.86333 28.2072 4.80721 28.1626 4.64763 28.1646C3.97481 28.1727 3.30199 28.1721 2.62917 28.1653C2.475 28.1639 2.4067 28.1998 2.41211 28.3702C2.42361 28.6954 2.42361 29.022 2.41211 29.3473C2.40535 29.5251 2.46756 29.584 2.64337 29.5785C2.97944 29.5677 3.31619 29.5752 3.65226 29.5752C3.97751 29.5752 4.30277 29.5664 4.62734 29.5785C4.80518 29.5853 4.86333 29.5238 4.85792 29.3486C4.84778 29.0234 4.84711 28.6968 4.85792 28.3715Z" fill="#0B193F"/>
<path d="M28.462 28.1653C28.1368 28.1741 27.8115 28.168 27.4863 28.168C27.1495 28.168 26.8128 28.1734 26.4767 28.1653C26.33 28.1619 26.2502 28.1849 26.2563 28.3621C26.2684 28.6988 26.2651 29.0362 26.2556 29.3737C26.2509 29.5427 26.3239 29.5792 26.4767 29.5779C27.1387 29.5718 27.8007 29.5718 28.462 29.5785C28.6257 29.5799 28.7102 29.5468 28.7028 29.3574C28.6892 29.0322 28.6879 28.7049 28.7028 28.3797C28.7115 28.1842 28.6209 28.1612 28.462 28.1653Z" fill="#0B193F"/>
<path d="M6.17578 4C8.28331 4 26.679 4 29.208 4C32.3693 4 34.1758 4.88889 34.1758 6.66667C34.1758 8.08889 34.1758 22.0741 34.1758 28" stroke="#0B193F" stroke-width="1.5"/>
<path d="M10.1758 1C12.208 1 29.9467 1 32.3855 1C35.4338 1 37.1758 1.88889 37.1758 3.66667C37.1758 5.08889 37.1758 19.0741 37.1758 25" stroke="#0B193F" stroke-width="1.5"/>
</svg>
