<svg width="30" height="32" viewBox="0 0 30 32" fill="none" xmlns="http://www.w3.org/2000/svg">
<path d="M14.4011 31.8837C13.8075 31.8837 13.2163 31.8649 12.6177 31.8434C11.1564 31.7907 9.9397 31.7143 8.78871 31.6033C7.02936 31.4336 5.15258 31.2076 3.34547 30.7087C2.49614 30.4742 1.86875 30.226 1.31032 29.9039C1.10885 29.7876 0.920307 29.6553 0.749364 29.5103C0.243358 29.0807 -0.00874651 28.5379 0.00023159 27.8962L0.00418195 27.5956C0.021779 26.2777 0.0397352 24.9153 0.213551 23.5678C0.471402 21.5678 0.946523 20.0014 1.70822 18.6379C2.80894 16.6676 4.49 15.2815 6.70471 14.5178C7.18379 14.3526 7.60073 14.2342 7.99505 14.1525C7.99433 14.0782 7.99505 14.0033 7.9972 13.928C6.48529 13.1253 5.36195 11.946 4.65735 10.4206C3.24887 7.37154 4.17828 3.66159 6.86776 1.59905C8.01157 0.72142 9.30333 0.199156 10.7071 0.0460475C12.2209 -0.118729 13.7274 0.160613 15.064 0.853666C16.4115 1.55238 17.4985 2.62767 18.2078 3.96321C19.1502 5.73757 19.3347 7.75166 18.7271 9.63422C18.1306 11.4828 16.8363 13.003 15.0763 13.9265C15.0788 14.0026 15.0791 14.0772 15.0788 14.1497C16.474 14.4594 17.6706 14.9739 18.7293 15.7175C18.7357 15.7214 18.7422 15.7249 18.749 15.7285C18.8478 15.7833 19.1096 15.9286 19.1509 16.2575C19.1742 16.4431 19.162 16.6164 19.1509 16.7695L19.1476 16.8158C19.1383 16.9541 19.0719 17.2069 18.7332 17.343L18.7307 17.3441C18.3935 17.506 18.1263 17.6567 17.8903 17.8168C17.6318 17.9926 17.3412 17.9972 17.0719 17.8303C16.7577 17.6358 16.5232 17.5449 16.2872 17.5265C15.6692 17.4781 15.2246 17.6821 14.9283 18.1496C14.3695 19.0318 13.8161 19.9724 13.2375 21.0243C12.8716 21.6898 13.1355 22.5116 13.8384 22.8956C14.5404 23.2792 14.4377 23.8337 14.4036 24.0158C14.3724 24.1834 14.3925 24.3817 14.4165 24.5536C14.4711 24.9475 14.3027 25.2601 13.9425 25.4341C13.5924 25.6031 13.3546 25.8389 13.216 26.1554C13.0181 26.6066 13.0328 27.0203 13.2605 27.4202C13.7561 28.2904 14.2768 29.1688 14.7807 30.0177L14.8866 30.1963C15.0332 30.4435 15.249 30.6281 15.5463 30.7603C15.5869 30.7783 15.6275 30.7957 15.6681 30.813L15.7306 30.8395C15.9597 30.9378 16.0901 31.1786 16.0452 31.4205C16.0003 31.6623 15.7923 31.8427 15.5428 31.8554C15.1592 31.8759 14.7796 31.8837 14.4011 31.8837ZM11.5522 1.06087C11.3105 1.06087 11.0681 1.07396 10.8253 1.10048C9.62296 1.23131 8.51398 1.68073 7.52962 2.43566C5.22872 4.20047 4.43326 7.37366 5.63776 9.9811C6.2612 11.3308 7.26818 12.3658 8.6307 13.0574C9.02609 13.2582 9.09325 13.579 9.07996 13.813C9.06919 14.0047 9.06919 14.1921 9.07996 14.3696C9.1051 14.7791 8.86736 15.0761 8.45903 15.1447C8.04173 15.2151 7.5975 15.3339 7.06061 15.5188C6.08702 15.8544 5.22512 16.3261 4.49898 16.9208C3.76241 17.5237 3.14113 18.2737 2.652 19.1492C1.95782 20.3921 1.52256 21.8387 1.2823 23.7014C1.11603 24.9892 1.09843 26.3212 1.08119 27.6094L1.07724 27.9107C1.07258 28.237 1.18821 28.4824 1.45253 28.7066C1.57391 28.8099 1.7093 28.9046 1.85475 28.9884C2.33023 29.2628 2.87969 29.4782 3.63636 29.6871C5.26678 30.1376 6.91732 30.3568 8.89357 30.5474C10.0223 30.6563 11.2182 30.7313 12.6572 30.7833C13.1118 30.7996 13.5622 30.8144 14.0104 30.8201C13.9917 30.7911 13.9734 30.7621 13.9558 30.732L13.8498 30.5534C13.3438 29.7002 12.8202 28.818 12.3203 27.9393C11.9285 27.2508 11.8962 26.4888 12.2266 25.7353C12.4485 25.229 12.8195 24.8319 13.3309 24.5525C13.3068 24.3347 13.2968 24.0904 13.3417 23.8383C13.3341 23.8337 13.3255 23.8291 13.3158 23.8234C12.7319 23.5045 12.3031 22.99 12.1081 22.3744C11.9106 21.7503 11.9752 21.0915 12.2902 20.5194C12.8795 19.448 13.4437 18.489 14.0143 17.5881C14.5218 16.7872 15.3596 16.3897 16.3727 16.4689C16.8076 16.5029 17.1725 16.6613 17.4623 16.8236C17.6293 16.7189 17.8085 16.6174 18.0089 16.5145C17.0256 15.8441 15.9008 15.3901 14.5746 15.1277C14.1986 15.0535 13.9824 14.783 13.9956 14.4043C14.0018 14.2356 14.0068 14.0401 13.9953 13.8548C13.9723 13.4909 14.1371 13.2095 14.4722 13.0404C16.0326 12.253 17.1793 10.9291 17.7011 9.31244C18.2211 7.70145 18.0624 5.97624 17.254 4.454C16.6463 3.31011 15.7159 2.38934 14.5627 1.79141C13.6304 1.30945 12.6022 1.06087 11.5522 1.06087ZM18.0728 16.7433C18.0728 16.744 18.0728 16.7444 18.0728 16.7451V16.7433Z" fill="#0B193F"/>
<path d="M29.1068 26.6671C28.678 26.4334 28.2592 26.1816 27.8294 25.95C27.6986 25.8797 27.6717 25.8114 27.7112 25.6735C27.9967 24.675 27.9867 23.6746 27.7015 22.6778C27.671 22.5714 27.6929 22.5226 27.7877 22.4703C28.2309 22.2256 28.6679 21.9706 29.1114 21.7263C29.2138 21.6697 29.2263 21.6266 29.166 21.5251C28.6859 20.7175 28.2089 19.9078 27.7389 19.0945C27.6667 18.9697 27.6096 18.9665 27.4932 19.0351C27.0723 19.2826 26.645 19.5188 26.2219 19.7628C26.1422 19.8088 26.0901 19.8236 26.01 19.7469C25.2419 19.0075 24.3329 18.505 23.3008 18.2186C23.1931 18.1886 23.1604 18.144 23.1615 18.0372C23.1668 17.5425 23.1611 17.0475 23.1658 16.5525C23.1668 16.4432 23.1453 16.3987 23.0196 16.3994C22.0622 16.4047 21.1048 16.4047 20.1477 16.3994C20.0173 16.3987 19.9882 16.4414 19.9897 16.5613C19.9958 17.0443 19.9879 17.5277 19.9947 18.0107C19.9965 18.1362 19.9635 18.1907 19.8317 18.2275C18.8189 18.5107 17.9236 19.0022 17.1684 19.7288C17.0854 19.8088 17.0287 19.8197 16.9281 19.761C16.4965 19.5085 16.0576 19.2677 15.6263 19.0149C15.5286 18.9576 15.4884 18.9746 15.4353 19.0662C14.9594 19.8834 14.4818 20.6991 13.9977 21.5113C13.9262 21.6312 13.9553 21.6768 14.0674 21.738C14.4904 21.9696 14.9048 22.2171 15.3297 22.4452C15.4622 22.5163 15.483 22.587 15.4453 22.7231C15.1681 23.7167 15.1717 24.7124 15.4521 25.7046C15.4873 25.8288 15.4496 25.8814 15.3448 25.9391C14.912 26.1778 14.4861 26.4288 14.0526 26.6664C13.9431 26.7265 13.9305 26.7729 13.9941 26.8796C14.4775 27.6926 14.9562 28.5076 15.4302 29.3255C15.492 29.4316 15.5412 29.4326 15.6385 29.376C16.0662 29.1282 16.4997 28.8902 16.926 28.6406C17.0258 28.5819 17.0826 28.5882 17.1673 28.6689C17.9258 29.3909 18.8157 29.8916 19.8331 30.1656C19.9663 30.2017 19.9958 30.2615 19.9943 30.3856C19.9879 30.8746 19.9958 31.3636 19.989 31.8526C19.9872 31.9704 20.0231 31.9997 20.1391 31.9983C20.6178 31.992 21.0965 31.9959 21.5752 31.9955C22.0421 31.9955 22.5089 31.9867 22.9751 32.0001C23.1424 32.005 23.1697 31.9502 23.1668 31.8028C23.1575 31.3258 23.1661 30.8484 23.1615 30.3711C23.1604 30.2618 23.1837 30.2098 23.3047 30.1766C24.3322 29.8958 25.2354 29.3948 26.0011 28.6618C26.0833 28.5833 26.139 28.585 26.2291 28.6374C26.6514 28.8824 27.0791 29.1186 27.5008 29.3647C27.6071 29.427 27.6631 29.4383 27.7353 29.3131C28.2043 28.4991 28.6812 27.6894 29.1603 26.8811C29.2213 26.7789 29.2217 26.7297 29.1068 26.6671ZM21.5422 27.183C19.8877 27.1784 18.5428 25.8277 18.5485 24.1753C18.5543 22.5339 19.9132 21.2104 21.5885 21.2139C23.2624 21.2175 24.6209 22.5629 24.6156 24.2125C24.6105 25.8623 23.2394 27.1873 21.5422 27.183Z" fill="#0B193F"/>
</svg>
