<svg width="27" height="30" viewBox="0 0 27 30" fill="none" xmlns="http://www.w3.org/2000/svg">
<path d="M26.991 29.6395C26.9437 29.3031 26.9504 28.9553 26.9121 28.6211C26.4363 24.4232 24.4418 21.1468 21.0402 18.7234C20.3457 18.2296 19.5869 17.8475 18.8056 17.4689C24.0934 13.6656 24.019 6.66908 20.1833 2.78022C16.4942 -0.960373 10.3495 -0.913617 6.74948 2.84295C2.94876 6.80935 2.98709 13.7146 8.19828 17.47C7.80141 17.6742 7.43498 17.8475 7.08095 18.0403C6.72692 18.233 6.37177 18.4451 6.03804 18.6789C2.26325 21.3349 0.239444 24.9786 0.00154705 29.6338C-0.0142376 29.9543 0.0894934 30.0067 0.371362 29.9976C1.01741 29.9782 1.66457 29.976 2.31061 29.9976C2.60376 30.0079 2.71087 29.9554 2.72214 29.619C2.76946 28.1116 3.12776 26.6308 3.77407 25.2717C5.65357 21.2802 9.83199 18.7998 14.1728 19.1134C17.0287 19.3187 19.4539 20.4568 21.4078 22.5757C23.2433 24.5681 24.1814 26.9481 24.2772 29.6646C24.2885 29.96 24.3899 30.0067 24.6414 29.9988C25.3021 29.9828 25.9628 29.9794 26.6235 29.9988C26.9031 30.009 27.0373 29.9611 26.991 29.6395ZM13.4884 16.3399C12.1548 16.3374 10.8518 15.9349 9.74432 15.1833C8.63685 14.4318 7.77462 13.3649 7.26669 12.1176C6.75875 10.8703 6.62791 9.49862 6.89075 8.17612C7.15358 6.85361 7.79828 5.63965 8.74328 4.68779C9.68827 3.73592 10.8911 3.08891 12.1997 2.82859C13.5083 2.56827 14.8638 2.70634 16.0948 3.22532C17.3258 3.74431 18.3769 4.6209 19.1154 5.74423C19.8538 6.86755 20.2462 8.18715 20.2431 9.5361C20.2431 10.432 20.0682 11.3191 19.7284 12.1464C19.3886 12.9737 18.8906 13.725 18.263 14.3572C17.6354 14.9894 16.8905 15.4899 16.0712 15.8302C15.2518 16.1704 14.3741 16.3436 13.4884 16.3399Z" fill="#0B193F"/>
</svg>
