<svg width="46" height="42" viewBox="0 0 46 42" fill="none" xmlns="http://www.w3.org/2000/svg">
<path d="M26.7594 6.46784C26.6324 6.17893 26.4837 5.90006 26.3145 5.63363C25.6174 4.56842 24.3429 4.16362 23.2271 4.66C22.1113 5.15638 21.5458 6.38554 21.9035 7.61081C22.0021 7.94806 21.9369 8.16968 21.7217 8.42618C19.8875 10.6026 18.0654 12.7898 16.2376 14.9723C14.1553 17.46 12.0631 19.9378 9.99224 22.4347C9.68092 22.8092 9.33817 22.9463 8.86295 22.949C7.28901 22.9487 5.71534 22.9826 4.14159 23.0084C3.59443 23.0176 3.56549 23.067 3.80014 23.5822C5.17704 26.6056 6.55384 29.6287 7.93051 32.6516C8.19078 33.2231 8.2635 33.2362 8.68151 32.7868C9.772 31.6147 10.8615 30.4403 11.9499 29.2636C12.0914 29.1086 12.2308 28.9691 12.465 28.972C13.1217 28.9808 13.7786 28.9853 14.4356 28.9855C14.6868 28.9861 14.7758 29.124 14.7607 29.3545C14.7425 29.6553 14.7143 29.956 14.7005 30.2566C14.6773 30.655 14.7337 31.0542 14.8664 31.4308C14.9991 31.8075 15.2055 32.1539 15.4733 32.4499C15.7412 32.7459 16.0652 32.9855 16.4263 33.1546C16.7874 33.3237 17.1784 33.4189 17.5763 33.4347C18.0956 33.4626 18.6151 33.4889 19.1347 33.5137C20.7071 33.5881 22.28 33.6831 23.852 33.7269C25.3661 33.7681 26.5196 32.9068 26.9189 31.4971C27.0888 30.8972 27.0555 30.2713 27.0876 29.6581C27.1108 29.2156 27.284 29.0987 27.6922 29.1112C28.7323 29.1382 29.7741 29.1591 30.8111 29.1395C31.3542 29.1313 31.7307 29.2704 32.0756 29.7563C32.6473 30.5599 33.5197 30.8625 34.4766 30.6314C35.4968 30.385 36.1806 29.7385 36.3737 28.6545C36.4963 27.9648 36.2634 27.3465 35.9917 26.7458C34.45 23.3459 32.9025 19.9481 31.3493 16.5522C29.8193 13.1899 28.2893 9.82844 26.7594 6.46784ZM25.3924 29.6016C25.3616 30.0114 25.3549 30.4246 25.3057 30.8319C25.2148 31.5814 24.7274 32.037 23.9789 32.0102C21.8731 31.9345 19.7683 31.8409 17.6642 31.7294C17.1577 31.7029 16.7424 31.4728 16.5374 30.9612C16.2897 30.3895 16.4471 29.7999 16.4803 29.2188C16.4924 28.9959 16.7091 29.0159 16.8698 29.0161C17.9775 29.0205 19.0853 29.0276 20.1931 29.0374C21.7666 29.0507 23.3391 29.0698 24.9123 29.0823C25.395 29.0861 25.4284 29.1198 25.3924 29.6016ZM26.8908 18.6253C28.1361 21.3597 29.3815 24.0943 30.6271 26.8292C30.8849 27.3954 30.8617 27.4395 30.2592 27.4323C27.2641 27.3945 24.2685 27.3398 21.2712 27.3131C18.2739 27.2863 15.2558 27.2772 12.2483 27.2696C11.7 27.2685 11.246 27.5178 10.8754 27.9129C10.2752 28.5485 9.68508 29.1967 9.0854 29.8356C8.78825 30.152 8.6824 30.1396 8.49662 29.7415C7.79706 28.2213 7.10326 26.6979 6.41521 25.1712C6.22804 24.7602 6.29559 24.6688 6.76033 24.6609C7.65009 24.6451 8.53855 24.6244 9.42705 24.6236C9.71517 24.632 10.0011 24.5731 10.2623 24.4516C10.5235 24.3301 10.7528 24.1494 10.932 23.9237C11.8796 22.7904 12.8343 21.6629 13.7844 20.5311C16.6847 17.0756 19.585 13.6181 22.4853 10.1584C22.7784 9.81122 22.8864 9.83629 23.1015 10.3088C24.3669 13.0805 25.63 15.8527 26.8908 18.6253ZM34.3521 27.3186C34.4617 27.5549 34.5499 27.8005 34.6159 28.0524C34.7177 28.4543 34.5663 28.736 34.2067 28.8817C33.8471 29.0273 33.5512 28.9285 33.3343 28.5691C33.2262 28.3774 33.129 28.1799 33.0431 27.9773C31.5077 24.6059 29.9725 21.2348 28.4373 17.8639C26.8851 14.4556 25.3327 11.0469 23.7803 7.63807C23.6847 7.45596 23.6102 7.2636 23.5579 7.06471C23.4851 6.70669 23.6126 6.40596 23.9556 6.24973C24.2875 6.09861 24.5673 6.20572 24.7875 6.49117C24.9572 6.72421 25.0999 6.97577 25.2129 7.24098C28.2594 13.9332 31.3059 20.6257 34.3521 27.3186Z" fill="#0B193F"/>
<path d="M39.3231 12.8799C39.0978 12.4446 38.6542 12.3107 38.1248 12.5391C37.5737 12.7775 37.0321 13.0368 36.4858 13.2856C35.9394 13.5344 35.3901 13.7746 34.8475 14.0317C34.3183 14.2863 34.1432 14.6648 34.3206 15.1138C34.5115 15.5982 34.9601 15.8186 35.5007 15.5887C36.6427 15.1043 37.7717 14.5901 38.8878 14.0461C39.4079 13.7912 39.5473 13.3048 39.3231 12.8799Z" fill="#0B193F"/>
<path d="M31.2915 10.1211C31.4534 10.0505 31.5881 9.92947 31.6757 9.77589C32.3043 8.71901 32.9383 7.66602 33.5536 6.60163C33.6633 6.41704 33.6989 6.19744 33.6534 5.98712C33.6078 5.7768 33.4845 5.59141 33.3082 5.46831C33.2206 5.40647 33.1217 5.36272 33.0172 5.33962C32.9127 5.31651 32.8047 5.31452 32.6995 5.33375C32.5943 5.35299 32.4941 5.39306 32.4046 5.45163C32.3152 5.5102 32.2383 5.58609 32.1786 5.67487C31.452 6.76638 30.7928 7.90061 30.1678 9.05271C29.9909 9.37958 30.0766 9.72814 30.3433 9.99875C30.61 10.2694 30.9153 10.2879 31.2915 10.1211Z" fill="#0B193F"/>
<path d="M40.2545 21.6187C39.1247 21.4025 37.9891 21.2016 36.8594 20.9916C36.6434 20.9395 36.417 20.9542 36.2099 21.0339C36.0683 21.1035 35.949 21.2114 35.8655 21.3454C35.7819 21.4795 35.7374 21.6343 35.737 21.7926C35.7279 21.945 35.766 22.0967 35.8461 22.2268C35.9262 22.357 36.0444 22.4592 36.1845 22.5196C36.3589 22.5987 36.5425 22.6557 36.7309 22.6891C37.7962 22.8922 38.8614 23.088 39.9267 23.2765C40.5765 23.3917 40.9814 23.1494 41.0749 22.6015C41.1579 22.1101 40.8592 21.7336 40.2545 21.6187Z" fill="#0B193F"/>
</svg>
