<svg width="88" height="75" viewBox="0 0 88 75" fill="none" xmlns="http://www.w3.org/2000/svg">
<path d="M88 0.00659486L0 75C0.198198 56.5492 0 17.6241 0 9.52956C0 -0.588591 5.35135 0.00659486 10.7027 0.00659486H88Z" fill="#FFC24C"/>
<path d="M19.1055 18H17.0547L13.0625 11.4512V18H11.0117V8.04688H13.0625L17.0615 14.6094V8.04688H19.1055V18ZM24.1709 18.1367C23.0863 18.1367 22.2021 17.804 21.5186 17.1387C20.8395 16.4733 20.5 15.5869 20.5 14.4795V14.2881C20.5 13.5452 20.6436 12.8822 20.9307 12.2988C21.2178 11.7109 21.6234 11.2598 22.1475 10.9453C22.6761 10.6263 23.2777 10.4668 23.9521 10.4668C24.9639 10.4668 25.7591 10.7858 26.3379 11.4238C26.9212 12.0618 27.2129 12.9665 27.2129 14.1377V14.9443H22.5029C22.5667 15.4274 22.7581 15.8148 23.0771 16.1064C23.4007 16.3981 23.8086 16.5439 24.3008 16.5439C25.0618 16.5439 25.6566 16.2682 26.085 15.7168L27.0557 16.8037C26.7594 17.223 26.3584 17.5511 25.8525 17.7881C25.3467 18.0205 24.7861 18.1367 24.1709 18.1367ZM23.9453 12.0664C23.5534 12.0664 23.2344 12.1986 22.9883 12.4629C22.7467 12.7272 22.5918 13.1055 22.5234 13.5977H25.2715V13.4404C25.2624 13.0029 25.1439 12.6657 24.916 12.4287C24.6882 12.1872 24.3646 12.0664 23.9453 12.0664ZM34.7734 15.3135L35.7441 10.6035H37.6514L35.7646 18H34.1104L32.709 13.3447L31.3076 18H29.6602L27.7734 10.6035H29.6807L30.6445 15.3066L31.998 10.6035H33.4268L34.7734 15.3135ZM9.72656 31.9492H6.13086L5.44727 34H3.2666L6.97168 24.0469H8.87207L12.5977 34H10.417L9.72656 31.9492ZM6.68457 30.2881H9.17285L7.92188 26.5625L6.68457 30.2881ZM17.5537 28.4561C17.2848 28.4196 17.0479 28.4014 16.8428 28.4014C16.0954 28.4014 15.6055 28.6543 15.373 29.1602V34H13.3975V26.6035H15.2637L15.3184 27.4854C15.7148 26.8063 16.264 26.4668 16.9658 26.4668C17.1846 26.4668 17.3896 26.4964 17.5811 26.5557L17.5537 28.4561ZM22.667 28.4561C22.3981 28.4196 22.1611 28.4014 21.9561 28.4014C21.2087 28.4014 20.7188 28.6543 20.4863 29.1602V34H18.5107V26.6035H20.377L20.4316 27.4854C20.8281 26.8063 21.3773 26.4668 22.0791 26.4668C22.2979 26.4668 22.5029 26.4964 22.6943 26.5557L22.667 28.4561ZM25.709 34H23.7266V26.6035H25.709V34ZM23.6104 24.6895C23.6104 24.3932 23.7083 24.1494 23.9043 23.958C24.1048 23.7666 24.376 23.6709 24.7178 23.6709C25.055 23.6709 25.3239 23.7666 25.5244 23.958C25.7249 24.1494 25.8252 24.3932 25.8252 24.6895C25.8252 24.9902 25.7227 25.2363 25.5176 25.4277C25.3171 25.6191 25.0505 25.7148 24.7178 25.7148C24.3851 25.7148 24.1162 25.6191 23.9111 25.4277C23.7106 25.2363 23.6104 24.9902 23.6104 24.6895ZM30.1113 31.5869L31.4854 26.6035H33.5498L31.0547 34H29.168L26.6729 26.6035H28.7373L30.1113 31.5869ZM38.6016 34C38.5104 33.8223 38.4443 33.6012 38.4033 33.3369C37.9248 33.8701 37.3027 34.1367 36.5371 34.1367C35.8125 34.1367 35.2109 33.9271 34.7324 33.5078C34.2585 33.0885 34.0215 32.5599 34.0215 31.9219C34.0215 31.138 34.3109 30.5365 34.8896 30.1172C35.473 29.6979 36.3138 29.486 37.4121 29.4814H38.3213V29.0576C38.3213 28.7158 38.2324 28.4424 38.0547 28.2373C37.8815 28.0322 37.6058 27.9297 37.2275 27.9297C36.8949 27.9297 36.6328 28.0094 36.4414 28.1689C36.2546 28.3285 36.1611 28.5472 36.1611 28.8252H34.1855C34.1855 28.3968 34.3177 28.0003 34.582 27.6357C34.8464 27.2712 35.2201 26.9863 35.7031 26.7812C36.1862 26.5716 36.7285 26.4668 37.3301 26.4668C38.2415 26.4668 38.9639 26.6969 39.4971 27.1572C40.0348 27.613 40.3037 28.2555 40.3037 29.085V32.291C40.3083 32.9928 40.4062 33.5238 40.5977 33.8838V34H38.6016ZM36.9678 32.626C37.2594 32.626 37.5283 32.5622 37.7744 32.4346C38.0205 32.3024 38.2028 32.127 38.3213 31.9082V30.6367H37.583C36.5941 30.6367 36.0677 30.9785 36.0039 31.6621L35.9971 31.7783C35.9971 32.0244 36.0837 32.2272 36.2568 32.3867C36.43 32.5462 36.667 32.626 36.9678 32.626ZM43.9062 34H41.9238V23.5H43.9062V34Z" fill="black"/>
</svg>
